# Solar Horizon Hyper-Realistic 3D Asset: CrewCapsuleV2
# Vertices: 1174, Faces: 2208

v 0.000000 0.000000 -1.300000
v 0.000000 0.000000 -1.300000
v 0.000000 0.000000 -1.300000
v 0.000000 0.000000 -1.300000
v 0.000000 0.000000 -1.300000
v 0.000000 0.000000 -1.300000
v 0.000000 0.000000 -1.300000
v 0.000000 0.000000 -1.300000
v 0.000000 0.000000 -1.300000
v 0.000000 0.000000 -1.300000
v -0.000000 0.000000 -1.300000
v -0.000000 0.000000 -1.300000
v -0.000000 0.000000 -1.300000
v -0.000000 0.000000 -1.300000
v -0.000000 0.000000 -1.300000
v -0.000000 0.000000 -1.300000
v -0.000000 0.000000 -1.300000
v -0.000000 0.000000 -1.300000
v -0.000000 0.000000 -1.300000
v -0.000000 -0.000000 -1.300000
v -0.000000 -0.000000 -1.300000
v -0.000000 -0.000000 -1.300000
v -0.000000 -0.000000 -1.300000
v -0.000000 -0.000000 -1.300000
v -0.000000 -0.000000 -1.300000
v -0.000000 -0.000000 -1.300000
v -0.000000 -0.000000 -1.300000
v -0.000000 -0.000000 -1.300000
v 0.000000 -0.000000 -1.300000
v 0.000000 -0.000000 -1.300000
v 0.000000 -0.000000 -1.300000
v 0.000000 -0.000000 -1.300000
v 0.000000 -0.000000 -1.300000
v 0.000000 -0.000000 -1.300000
v 0.000000 -0.000000 -1.300000
v 0.000000 -0.000000 -1.300000
v 1.387819 0.000000 -1.100000
v 1.366735 0.240992 -1.100000
v 1.304123 0.474662 -1.100000
v 1.201887 0.693910 -1.100000
v 1.063131 0.892073 -1.100000
v 0.892073 1.063131 -1.100000
v 0.693910 1.201887 -1.100000
v 0.474662 1.304123 -1.100000
v 0.240992 1.366735 -1.100000
v 0.000000 1.387819 -1.100000
v -0.240992 1.366735 -1.100000
v -0.474662 1.304123 -1.100000
v -0.693910 1.201887 -1.100000
v -0.892073 1.063131 -1.100000
v -1.063131 0.892073 -1.100000
v -1.201887 0.693910 -1.100000
v -1.304123 0.474662 -1.100000
v -1.366735 0.240992 -1.100000
v -1.387819 0.000000 -1.100000
v -1.366735 -0.240992 -1.100000
v -1.304123 -0.474662 -1.100000
v -1.201887 -0.693910 -1.100000
v -1.063131 -0.892073 -1.100000
v -0.892073 -1.063131 -1.100000
v -0.693910 -1.201887 -1.100000
v -0.474662 -1.304123 -1.100000
v -0.240992 -1.366735 -1.100000
v -0.000000 -1.387819 -1.100000
v 0.240992 -1.366735 -1.100000
v 0.474662 -1.304123 -1.100000
v 0.693910 -1.201887 -1.100000
v 0.892073 -1.063131 -1.100000
v 1.063131 -0.892073 -1.100000
v 1.201887 -0.693910 -1.100000
v 1.304123 -0.474662 -1.100000
v 1.366735 -0.240992 -1.100000
v 1.962672 0.000000 -0.900000
v 1.932855 0.340815 -0.900000
v 1.844309 0.671274 -0.900000
v 1.699724 0.981336 -0.900000
v 1.503494 1.261582 -0.900000
v 1.261582 1.503494 -0.900000
v 0.981336 1.699724 -0.900000
v 0.671274 1.844309 -0.900000
v 0.340815 1.932855 -0.900000
v 0.000000 1.962672 -0.900000
v -0.340815 1.932855 -0.900000
v -0.671274 1.844309 -0.900000
v -0.981336 1.699724 -0.900000
v -1.261582 1.503494 -0.900000
v -1.503494 1.261582 -0.900000
v -1.699724 0.981336 -0.900000
v -1.844309 0.671274 -0.900000
v -1.932855 0.340815 -0.900000
v -1.962672 0.000000 -0.900000
v -1.932855 -0.340815 -0.900000
v -1.844309 -0.671274 -0.900000
v -1.699724 -0.981336 -0.900000
v -1.503494 -1.261582 -0.900000
v -1.261582 -1.503494 -0.900000
v -0.981336 -1.699724 -0.900000
v -0.671274 -1.844309 -0.900000
v -0.340815 -1.932855 -0.900000
v -0.000000 -1.962672 -0.900000
v 0.340815 -1.932855 -0.900000
v 0.671274 -1.844309 -0.900000
v 0.981336 -1.699724 -0.900000
v 1.261582 -1.503494 -0.900000
v 1.503494 -1.261582 -0.900000
v 1.699724 -0.981336 -0.900000
v 1.844309 -0.671274 -0.900000
v 1.932855 -0.340815 -0.900000
v 2.085500 0.000000 -0.700000
v 2.053817 0.362143 -0.700000
v 1.959729 0.713283 -0.700000
v 1.806096 1.042750 -0.700000
v 1.597586 1.340534 -0.700000
v 1.340534 1.597586 -0.700000
v 1.042750 1.806096 -0.700000
v 0.713283 1.959729 -0.700000
v 0.362143 2.053817 -0.700000
v 0.000000 2.085500 -0.700000
v -0.362143 2.053817 -0.700000
v -0.713283 1.959729 -0.700000
v -1.042750 1.806096 -0.700000
v -1.340534 1.597586 -0.700000
v -1.597586 1.340534 -0.700000
v -1.806096 1.042750 -0.700000
v -1.959729 0.713283 -0.700000
v -2.053817 0.362143 -0.700000
v -2.085500 0.000000 -0.700000
v -2.053817 -0.362143 -0.700000
v -1.959729 -0.713283 -0.700000
v -1.806096 -1.042750 -0.700000
v -1.597586 -1.340534 -0.700000
v -1.340534 -1.597586 -0.700000
v -1.042750 -1.806096 -0.700000
v -0.713283 -1.959729 -0.700000
v -0.362143 -2.053817 -0.700000
v -0.000000 -2.085500 -0.700000
v 0.362143 -2.053817 -0.700000
v 0.713283 -1.959729 -0.700000
v 1.042750 -1.806096 -0.700000
v 1.340534 -1.597586 -0.700000
v 1.597586 -1.340534 -0.700000
v 1.806096 -1.042750 -0.700000
v 1.959729 -0.713283 -0.700000
v 2.053817 -0.362143 -0.700000
v 1.978000 0.000000 -0.500000
v 1.947950 0.343476 -0.500000
v 1.858712 0.676516 -0.500000
v 1.712998 0.989000 -0.500000
v 1.515236 1.271434 -0.500000
v 1.271434 1.515236 -0.500000
v 0.989000 1.712998 -0.500000
v 0.676516 1.858712 -0.500000
v 0.343476 1.947950 -0.500000
v 0.000000 1.978000 -0.500000
v -0.343476 1.947950 -0.500000
v -0.676516 1.858712 -0.500000
v -0.989000 1.712998 -0.500000
v -1.271434 1.515236 -0.500000
v -1.515236 1.271434 -0.500000
v -1.712998 0.989000 -0.500000
v -1.858712 0.676516 -0.500000
v -1.947950 0.343476 -0.500000
v -1.978000 0.000000 -0.500000
v -1.947950 -0.343476 -0.500000
v -1.858712 -0.676516 -0.500000
v -1.712998 -0.989000 -0.500000
v -1.515236 -1.271434 -0.500000
v -1.271434 -1.515236 -0.500000
v -0.989000 -1.712998 -0.500000
v -0.676516 -1.858712 -0.500000
v -0.343476 -1.947950 -0.500000
v -0.000000 -1.978000 -0.500000
v 0.343476 -1.947950 -0.500000
v 0.676516 -1.858712 -0.500000
v 0.989000 -1.712998 -0.500000
v 1.271434 -1.515236 -0.500000
v 1.515236 -1.271434 -0.500000
v 1.712998 -0.989000 -0.500000
v 1.858712 -0.676516 -0.500000
v 1.947950 -0.343476 -0.500000
v 1.870500 0.000000 -0.300000
v 1.842083 0.324809 -0.300000
v 1.757695 0.639749 -0.300000
v 1.619901 0.935250 -0.300000
v 1.432886 1.202334 -0.300000
v 1.202334 1.432886 -0.300000
v 0.935250 1.619901 -0.300000
v 0.639749 1.757695 -0.300000
v 0.324809 1.842083 -0.300000
v 0.000000 1.870500 -0.300000
v -0.324809 1.842083 -0.300000
v -0.639749 1.757695 -0.300000
v -0.935250 1.619901 -0.300000
v -1.202334 1.432886 -0.300000
v -1.432886 1.202334 -0.300000
v -1.619901 0.935250 -0.300000
v -1.757695 0.639749 -0.300000
v -1.842083 0.324809 -0.300000
v -1.870500 0.000000 -0.300000
v -1.842083 -0.324809 -0.300000
v -1.757695 -0.639749 -0.300000
v -1.619901 -0.935250 -0.300000
v -1.432886 -1.202334 -0.300000
v -1.202334 -1.432886 -0.300000
v -0.935250 -1.619901 -0.300000
v -0.639749 -1.757695 -0.300000
v -0.324809 -1.842083 -0.300000
v -0.000000 -1.870500 -0.300000
v 0.324809 -1.842083 -0.300000
v 0.639749 -1.757695 -0.300000
v 0.935250 -1.619901 -0.300000
v 1.202334 -1.432886 -0.300000
v 1.432886 -1.202334 -0.300000
v 1.619901 -0.935250 -0.300000
v 1.757695 -0.639749 -0.300000
v 1.842083 -0.324809 -0.300000
v 1.763000 0.000000 -0.100000
v 1.736216 0.306142 -0.100000
v 1.656678 0.602982 -0.100000
v 1.526803 0.881500 -0.100000
v 1.350536 1.133235 -0.100000
v 1.133235 1.350536 -0.100000
v 0.881500 1.526803 -0.100000
v 0.602982 1.656678 -0.100000
v 0.306142 1.736216 -0.100000
v 0.000000 1.763000 -0.100000
v -0.306142 1.736216 -0.100000
v -0.602982 1.656678 -0.100000
v -0.881500 1.526803 -0.100000
v -1.133235 1.350536 -0.100000
v -1.350536 1.133235 -0.100000
v -1.526803 0.881500 -0.100000
v -1.656678 0.602982 -0.100000
v -1.736216 0.306142 -0.100000
v -1.763000 0.000000 -0.100000
v -1.736216 -0.306142 -0.100000
v -1.656678 -0.602982 -0.100000
v -1.526803 -0.881500 -0.100000
v -1.350536 -1.133235 -0.100000
v -1.133235 -1.350536 -0.100000
v -0.881500 -1.526803 -0.100000
v -0.602982 -1.656678 -0.100000
v -0.306142 -1.736216 -0.100000
v -0.000000 -1.763000 -0.100000
v 0.306142 -1.736216 -0.100000
v 0.602982 -1.656678 -0.100000
v 0.881500 -1.526803 -0.100000
v 1.133235 -1.350536 -0.100000
v 1.350536 -1.133235 -0.100000
v 1.526803 -0.881500 -0.100000
v 1.656678 -0.602982 -0.100000
v 1.736216 -0.306142 -0.100000
v 1.655500 0.000000 0.100000
v 1.630349 0.287475 0.100000
v 1.555661 0.566214 0.100000
v 1.433705 0.827750 0.100000
v 1.268187 1.064135 0.100000
v 1.064135 1.268187 0.100000
v 0.827750 1.433705 0.100000
v 0.566214 1.555661 0.100000
v 0.287475 1.630349 0.100000
v 0.000000 1.655500 0.100000
v -0.287475 1.630349 0.100000
v -0.566214 1.555661 0.100000
v -0.827750 1.433705 0.100000
v -1.064135 1.268187 0.100000
v -1.268187 1.064135 0.100000
v -1.433705 0.827750 0.100000
v -1.555661 0.566214 0.100000
v -1.630349 0.287475 0.100000
v -1.655500 0.000000 0.100000
v -1.630349 -0.287475 0.100000
v -1.555661 -0.566214 0.100000
v -1.433705 -0.827750 0.100000
v -1.268187 -1.064135 0.100000
v -1.064135 -1.268187 0.100000
v -0.827750 -1.433705 0.100000
v -0.566214 -1.555661 0.100000
v -0.287475 -1.630349 0.100000
v -0.000000 -1.655500 0.100000
v 0.287475 -1.630349 0.100000
v 0.566214 -1.555661 0.100000
v 0.827750 -1.433705 0.100000
v 1.064135 -1.268187 0.100000
v 1.268187 -1.064135 0.100000
v 1.433705 -0.827750 0.100000
v 1.555661 -0.566214 0.100000
v 1.630349 -0.287475 0.100000
v 1.548000 0.000000 0.300000
v 1.524482 0.268807 0.300000
v 1.454644 0.529447 0.300000
v 1.340607 0.774000 0.300000
v 1.185837 0.995035 0.300000
v 0.995035 1.185837 0.300000
v 0.774000 1.340607 0.300000
v 0.529447 1.454644 0.300000
v 0.268807 1.524482 0.300000
v 0.000000 1.548000 0.300000
v -0.268807 1.524482 0.300000
v -0.529447 1.454644 0.300000
v -0.774000 1.340607 0.300000
v -0.995035 1.185837 0.300000
v -1.185837 0.995035 0.300000
v -1.340607 0.774000 0.300000
v -1.454644 0.529447 0.300000
v -1.524482 0.268807 0.300000
v -1.548000 0.000000 0.300000
v -1.524482 -0.268807 0.300000
v -1.454644 -0.529447 0.300000
v -1.340607 -0.774000 0.300000
v -1.185837 -0.995035 0.300000
v -0.995035 -1.185837 0.300000
v -0.774000 -1.340607 0.300000
v -0.529447 -1.454644 0.300000
v -0.268807 -1.524482 0.300000
v -0.000000 -1.548000 0.300000
v 0.268807 -1.524482 0.300000
v 0.529447 -1.454644 0.300000
v 0.774000 -1.340607 0.300000
v 0.995035 -1.185837 0.300000
v 1.185837 -0.995035 0.300000
v 1.340607 -0.774000 0.300000
v 1.454644 -0.529447 0.300000
v 1.524482 -0.268807 0.300000
v 1.440500 0.000000 0.500000
v 1.418616 0.250140 0.500000
v 1.353627 0.492680 0.500000
v 1.247510 0.720250 0.500000
v 1.103487 0.925936 0.500000
v 0.925936 1.103487 0.500000
v 0.720250 1.247510 0.500000
v 0.492680 1.353627 0.500000
v 0.250140 1.418616 0.500000
v 0.000000 1.440500 0.500000
v -0.250140 1.418616 0.500000
v -0.492680 1.353627 0.500000
v -0.720250 1.247510 0.500000
v -0.925936 1.103487 0.500000
v -1.103487 0.925936 0.500000
v -1.247510 0.720250 0.500000
v -1.353627 0.492680 0.500000
v -1.418616 0.250140 0.500000
v -1.440500 0.000000 0.500000
v -1.418616 -0.250140 0.500000
v -1.353627 -0.492680 0.500000
v -1.247510 -0.720250 0.500000
v -1.103487 -0.925936 0.500000
v -0.925936 -1.103487 0.500000
v -0.720250 -1.247510 0.500000
v -0.492680 -1.353627 0.500000
v -0.250140 -1.418616 0.500000
v -0.000000 -1.440500 0.500000
v 0.250140 -1.418616 0.500000
v 0.492680 -1.353627 0.500000
v 0.720250 -1.247510 0.500000
v 0.925936 -1.103487 0.500000
v 1.103487 -0.925936 0.500000
v 1.247510 -0.720250 0.500000
v 1.353627 -0.492680 0.500000
v 1.418616 -0.250140 0.500000
v 1.333000 0.000000 0.700000
v 1.312749 0.231473 0.700000
v 1.252610 0.455913 0.700000
v 1.154412 0.666500 0.700000
v 1.021137 0.856836 0.700000
v 0.856836 1.021137 0.700000
v 0.666500 1.154412 0.700000
v 0.455913 1.252610 0.700000
v 0.231473 1.312749 0.700000
v 0.000000 1.333000 0.700000
v -0.231473 1.312749 0.700000
v -0.455913 1.252610 0.700000
v -0.666500 1.154412 0.700000
v -0.856836 1.021137 0.700000
v -1.021137 0.856836 0.700000
v -1.154412 0.666500 0.700000
v -1.252610 0.455913 0.700000
v -1.312749 0.231473 0.700000
v -1.333000 0.000000 0.700000
v -1.312749 -0.231473 0.700000
v -1.252610 -0.455913 0.700000
v -1.154412 -0.666500 0.700000
v -1.021137 -0.856836 0.700000
v -0.856836 -1.021137 0.700000
v -0.666500 -1.154412 0.700000
v -0.455913 -1.252610 0.700000
v -0.231473 -1.312749 0.700000
v -0.000000 -1.333000 0.700000
v 0.231473 -1.312749 0.700000
v 0.455913 -1.252610 0.700000
v 0.666500 -1.154412 0.700000
v 0.856836 -1.021137 0.700000
v 1.021137 -0.856836 0.700000
v 1.154412 -0.666500 0.700000
v 1.252610 -0.455913 0.700000
v 1.312749 -0.231473 0.700000
v 1.225500 0.000000 0.900000
v 1.206882 0.212806 0.900000
v 1.151593 0.419146 0.900000
v 1.061314 0.612750 0.900000
v 0.938787 0.787736 0.900000
v 0.787736 0.938787 0.900000
v 0.612750 1.061314 0.900000
v 0.419146 1.151593 0.900000
v 0.212806 1.206882 0.900000
v 0.000000 1.225500 0.900000
v -0.212806 1.206882 0.900000
v -0.419146 1.151593 0.900000
v -0.612750 1.061314 0.900000
v -0.787736 0.938787 0.900000
v -0.938787 0.787736 0.900000
v -1.061314 0.612750 0.900000
v -1.151593 0.419146 0.900000
v -1.206882 0.212806 0.900000
v -1.225500 0.000000 0.900000
v -1.206882 -0.212806 0.900000
v -1.151593 -0.419146 0.900000
v -1.061314 -0.612750 0.900000
v -0.938787 -0.787736 0.900000
v -0.787736 -0.938787 0.900000
v -0.612750 -1.061314 0.900000
v -0.419146 -1.151593 0.900000
v -0.212806 -1.206882 0.900000
v -0.000000 -1.225500 0.900000
v 0.212806 -1.206882 0.900000
v 0.419146 -1.151593 0.900000
v 0.612750 -1.061314 0.900000
v 0.787736 -0.938787 0.900000
v 0.938787 -0.787736 0.900000
v 1.061314 -0.612750 0.900000
v 1.151593 -0.419146 0.900000
v 1.206882 -0.212806 0.900000
v 1.118000 0.000000 1.100000
v 1.101015 0.194139 1.100000
v 1.050576 0.382379 1.100000
v 0.968216 0.559000 1.100000
v 0.856438 0.718637 1.100000
v 0.718637 0.856438 1.100000
v 0.559000 0.968216 1.100000
v 0.382379 1.050576 1.100000
v 0.194139 1.101015 1.100000
v 0.000000 1.118000 1.100000
v -0.194139 1.101015 1.100000
v -0.382379 1.050576 1.100000
v -0.559000 0.968216 1.100000
v -0.718637 0.856438 1.100000
v -0.856438 0.718637 1.100000
v -0.968216 0.559000 1.100000
v -1.050576 0.382379 1.100000
v -1.101015 0.194139 1.100000
v -1.118000 0.000000 1.100000
v -1.101015 -0.194139 1.100000
v -1.050576 -0.382379 1.100000
v -0.968216 -0.559000 1.100000
v -0.856438 -0.718637 1.100000
v -0.718637 -0.856438 1.100000
v -0.559000 -0.968216 1.100000
v -0.382379 -1.050576 1.100000
v -0.194139 -1.101015 1.100000
v -0.000000 -1.118000 1.100000
v 0.194139 -1.101015 1.100000
v 0.382379 -1.050576 1.100000
v 0.559000 -0.968216 1.100000
v 0.718637 -0.856438 1.100000
v 0.856438 -0.718637 1.100000
v 0.968216 -0.559000 1.100000
v 1.050576 -0.382379 1.100000
v 1.101015 -0.194139 1.100000
v 1.010500 0.000000 1.300000
v 0.995148 0.175471 1.300000
v 0.949559 0.345611 1.300000
v 0.875119 0.505250 1.300000
v 0.774088 0.649537 1.300000
v 0.649537 0.774088 1.300000
v 0.505250 0.875119 1.300000
v 0.345611 0.949559 1.300000
v 0.175471 0.995148 1.300000
v 0.000000 1.010500 1.300000
v -0.175471 0.995148 1.300000
v -0.345611 0.949559 1.300000
v -0.505250 0.875119 1.300000
v -0.649537 0.774088 1.300000
v -0.774088 0.649537 1.300000
v -0.875119 0.505250 1.300000
v -0.949559 0.345611 1.300000
v -0.995148 0.175471 1.300000
v -1.010500 0.000000 1.300000
v -0.995148 -0.175471 1.300000
v -0.949559 -0.345611 1.300000
v -0.875119 -0.505250 1.300000
v -0.774088 -0.649537 1.300000
v -0.649537 -0.774088 1.300000
v -0.505250 -0.875119 1.300000
v -0.345611 -0.949559 1.300000
v -0.175471 -0.995148 1.300000
v -0.000000 -1.010500 1.300000
v 0.175471 -0.995148 1.300000
v 0.345611 -0.949559 1.300000
v 0.505250 -0.875119 1.300000
v 0.649537 -0.774088 1.300000
v 0.774088 -0.649537 1.300000
v 0.875119 -0.505250 1.300000
v 0.949559 -0.345611 1.300000
v 0.995148 -0.175471 1.300000
v 0.903000 0.000000 1.500000
v 0.889281 0.156804 1.500000
v 0.848542 0.308844 1.500000
v 0.782021 0.451500 1.500000
v 0.691738 0.580437 1.500000
v 0.580437 0.691738 1.500000
v 0.451500 0.782021 1.500000
v 0.308844 0.848542 1.500000
v 0.156804 0.889281 1.500000
v 0.000000 0.903000 1.500000
v -0.156804 0.889281 1.500000
v -0.308844 0.848542 1.500000
v -0.451500 0.782021 1.500000
v -0.580437 0.691738 1.500000
v -0.691738 0.580437 1.500000
v -0.782021 0.451500 1.500000
v -0.848542 0.308844 1.500000
v -0.889281 0.156804 1.500000
v -0.903000 0.000000 1.500000
v -0.889281 -0.156804 1.500000
v -0.848542 -0.308844 1.500000
v -0.782021 -0.451500 1.500000
v -0.691738 -0.580437 1.500000
v -0.580437 -0.691738 1.500000
v -0.451500 -0.782021 1.500000
v -0.308844 -0.848542 1.500000
v -0.156804 -0.889281 1.500000
v -0.000000 -0.903000 1.500000
v 0.156804 -0.889281 1.500000
v 0.308844 -0.848542 1.500000
v 0.451500 -0.782021 1.500000
v 0.580437 -0.691738 1.500000
v 0.691738 -0.580437 1.500000
v 0.782021 -0.451500 1.500000
v 0.848542 -0.308844 1.500000
v 0.889281 -0.156804 1.500000
v 0.795500 0.000000 1.700000
v 0.783415 0.138137 1.700000
v 0.747525 0.272077 1.700000
v 0.688923 0.397750 1.700000
v 0.609388 0.511338 1.700000
v 0.511338 0.609388 1.700000
v 0.397750 0.688923 1.700000
v 0.272077 0.747525 1.700000
v 0.138137 0.783415 1.700000
v 0.000000 0.795500 1.700000
v -0.138137 0.783415 1.700000
v -0.272077 0.747525 1.700000
v -0.397750 0.688923 1.700000
v -0.511338 0.609388 1.700000
v -0.609388 0.511338 1.700000
v -0.688923 0.397750 1.700000
v -0.747525 0.272077 1.700000
v -0.783415 0.138137 1.700000
v -0.795500 0.000000 1.700000
v -0.783415 -0.138137 1.700000
v -0.747525 -0.272077 1.700000
v -0.688923 -0.397750 1.700000
v -0.609388 -0.511338 1.700000
v -0.511338 -0.609388 1.700000
v -0.397750 -0.688923 1.700000
v -0.272077 -0.747525 1.700000
v -0.138137 -0.783415 1.700000
v -0.000000 -0.795500 1.700000
v 0.138137 -0.783415 1.700000
v 0.272077 -0.747525 1.700000
v 0.397750 -0.688923 1.700000
v 0.511338 -0.609388 1.700000
v 0.609388 -0.511338 1.700000
v 0.688923 -0.397750 1.700000
v 0.747525 -0.272077 1.700000
v 0.783415 -0.138137 1.700000
v 0.688000 0.000000 1.900000
v 0.677548 0.119470 1.900000
v 0.646509 0.235310 1.900000
v 0.595825 0.344000 1.900000
v 0.527039 0.442238 1.900000
v 0.442238 0.527039 1.900000
v 0.344000 0.595825 1.900000
v 0.235310 0.646509 1.900000
v 0.119470 0.677548 1.900000
v 0.000000 0.688000 1.900000
v -0.119470 0.677548 1.900000
v -0.235310 0.646509 1.900000
v -0.344000 0.595825 1.900000
v -0.442238 0.527039 1.900000
v -0.527039 0.442238 1.900000
v -0.595825 0.344000 1.900000
v -0.646509 0.235310 1.900000
v -0.677548 0.119470 1.900000
v -0.688000 0.000000 1.900000
v -0.677548 -0.119470 1.900000
v -0.646509 -0.235310 1.900000
v -0.595825 -0.344000 1.900000
v -0.527039 -0.442238 1.900000
v -0.442238 -0.527039 1.900000
v -0.344000 -0.595825 1.900000
v -0.235310 -0.646509 1.900000
v -0.119470 -0.677548 1.900000
v -0.000000 -0.688000 1.900000
v 0.119470 -0.677548 1.900000
v 0.235310 -0.646509 1.900000
v 0.344000 -0.595825 1.900000
v 0.442238 -0.527039 1.900000
v 0.527039 -0.442238 1.900000
v 0.595825 -0.344000 1.900000
v 0.646509 -0.235310 1.900000
v 0.677548 -0.119470 1.900000
v 0.720000 0.000000 1.800000
v 0.695467 0.186350 1.800000
v 0.623538 0.360000 1.800000
v 0.509117 0.509117 1.800000
v 0.360000 0.623538 1.800000
v 0.186350 0.695467 1.800000
v 0.000000 0.720000 1.800000
v -0.186350 0.695467 1.800000
v -0.360000 0.623538 1.800000
v -0.509117 0.509117 1.800000
v -0.623538 0.360000 1.800000
v -0.695467 0.186350 1.800000
v -0.720000 0.000000 1.800000
v -0.695467 -0.186350 1.800000
v -0.623538 -0.360000 1.800000
v -0.509117 -0.509117 1.800000
v -0.360000 -0.623538 1.800000
v -0.186350 -0.695467 1.800000
v -0.000000 -0.720000 1.800000
v 0.186350 -0.695467 1.800000
v 0.360000 -0.623538 1.800000
v 0.509117 -0.509117 1.800000
v 0.623538 -0.360000 1.800000
v 0.695467 -0.186350 1.800000
v 0.720000 0.000000 2.100000
v 0.695467 0.186350 2.100000
v 0.623538 0.360000 2.100000
v 0.509117 0.509117 2.100000
v 0.360000 0.623538 2.100000
v 0.186350 0.695467 2.100000
v 0.000000 0.720000 2.100000
v -0.186350 0.695467 2.100000
v -0.360000 0.623538 2.100000
v -0.509117 0.509117 2.100000
v -0.623538 0.360000 2.100000
v -0.695467 0.186350 2.100000
v -0.720000 0.000000 2.100000
v -0.695467 -0.186350 2.100000
v -0.623538 -0.360000 2.100000
v -0.509117 -0.509117 2.100000
v -0.360000 -0.623538 2.100000
v -0.186350 -0.695467 2.100000
v -0.000000 -0.720000 2.100000
v 0.186350 -0.695467 2.100000
v 0.360000 -0.623538 2.100000
v 0.509117 -0.509117 2.100000
v 0.623538 -0.360000 2.100000
v 0.695467 -0.186350 2.100000
v 0.720000 0.000000 2.400000
v 0.695467 0.186350 2.400000
v 0.623538 0.360000 2.400000
v 0.509117 0.509117 2.400000
v 0.360000 0.623538 2.400000
v 0.186350 0.695467 2.400000
v 0.000000 0.720000 2.400000
v -0.186350 0.695467 2.400000
v -0.360000 0.623538 2.400000
v -0.509117 0.509117 2.400000
v -0.623538 0.360000 2.400000
v -0.695467 0.186350 2.400000
v -0.720000 0.000000 2.400000
v -0.695467 -0.186350 2.400000
v -0.623538 -0.360000 2.400000
v -0.509117 -0.509117 2.400000
v -0.360000 -0.623538 2.400000
v -0.186350 -0.695467 2.400000
v -0.000000 -0.720000 2.400000
v 0.186350 -0.695467 2.400000
v 0.360000 -0.623538 2.400000
v 0.509117 -0.509117 2.400000
v 0.623538 -0.360000 2.400000
v 0.695467 -0.186350 2.400000
v 0.000000 0.000000 1.800000
v 0.000000 0.000000 2.400000
v 0.690000 -0.060000 2.000000
v 0.870000 -0.060000 2.000000
v 0.870000 0.060000 2.000000
v 0.690000 0.060000 2.000000
v 0.690000 -0.060000 2.400000
v 0.870000 -0.060000 2.400000
v 0.870000 0.060000 2.400000
v 0.690000 0.060000 2.400000
v -0.480000 0.615500 2.000000
v -0.300000 0.615500 2.000000
v -0.300000 0.735500 2.000000
v -0.480000 0.735500 2.000000
v -0.480000 0.615500 2.400000
v -0.300000 0.615500 2.400000
v -0.300000 0.735500 2.400000
v -0.480000 0.735500 2.400000
v -0.480000 -0.735500 2.000000
v -0.300000 -0.735500 2.000000
v -0.300000 -0.615500 2.000000
v -0.480000 -0.615500 2.000000
v -0.480000 -0.735500 2.400000
v -0.300000 -0.735500 2.400000
v -0.300000 -0.615500 2.400000
v -0.480000 -0.615500 2.400000
v 0.325000 0.690000 0.450000
v 0.875000 0.690000 0.450000
v 0.875000 1.110000 0.450000
v 0.325000 1.110000 0.450000
v 0.325000 0.690000 0.550000
v 0.875000 0.690000 0.550000
v 0.875000 1.110000 0.550000
v 0.325000 1.110000 0.550000
v -0.875000 0.690000 0.450000
v -0.325000 0.690000 0.450000
v -0.325000 1.110000 0.450000
v -0.875000 1.110000 0.450000
v -0.875000 0.690000 0.550000
v -0.325000 0.690000 0.550000
v -0.325000 1.110000 0.550000
v -0.875000 1.110000 0.550000
v 0.896016 0.896016 0.550000
v 1.296016 0.896016 0.550000
v 1.296016 1.296016 0.550000
v 0.896016 1.296016 0.550000
v 0.896016 0.896016 1.050000
v 1.296016 0.896016 1.050000
v 1.296016 1.296016 1.050000
v 0.896016 1.296016 1.050000
v 1.161579 1.156016 0.800000
v 1.161579 1.138442 0.842426
v 1.161579 1.096016 0.860000
v 1.161579 1.053589 0.842426
v 1.161579 1.036016 0.800000
v 1.161579 1.053589 0.757574
v 1.161579 1.096016 0.740000
v 1.161579 1.138442 0.757574
v 1.341579 1.156016 0.800000
v 1.341579 1.138442 0.842426
v 1.341579 1.096016 0.860000
v 1.341579 1.053589 0.842426
v 1.341579 1.036016 0.800000
v 1.341579 1.053589 0.757574
v 1.341579 1.096016 0.740000
v 1.341579 1.138442 0.757574
v 1.161579 1.096016 0.800000
v 1.341579 1.096016 0.800000
v -1.296016 0.896016 0.550000
v -0.896016 0.896016 0.550000
v -0.896016 1.296016 0.550000
v -1.296016 1.296016 0.550000
v -1.296016 0.896016 1.050000
v -0.896016 0.896016 1.050000
v -0.896016 1.296016 1.050000
v -1.296016 1.296016 1.050000
v -1.341579 1.156016 0.800000
v -1.341579 1.138442 0.842426
v -1.341579 1.096016 0.860000
v -1.341579 1.053589 0.842426
v -1.341579 1.036016 0.800000
v -1.341579 1.053589 0.757574
v -1.341579 1.096016 0.740000
v -1.341579 1.138442 0.757574
v -1.161579 1.156016 0.800000
v -1.161579 1.138442 0.842426
v -1.161579 1.096016 0.860000
v -1.161579 1.053589 0.842426
v -1.161579 1.036016 0.800000
v -1.161579 1.053589 0.757574
v -1.161579 1.096016 0.740000
v -1.161579 1.138442 0.757574
v -1.341579 1.096016 0.800000
v -1.161579 1.096016 0.800000
v -1.296016 -1.296016 0.550000
v -0.896016 -1.296016 0.550000
v -0.896016 -0.896016 0.550000
v -1.296016 -0.896016 0.550000
v -1.296016 -1.296016 1.050000
v -0.896016 -1.296016 1.050000
v -0.896016 -0.896016 1.050000
v -1.296016 -0.896016 1.050000
v -1.341579 -1.036016 0.800000
v -1.341579 -1.053589 0.842426
v -1.341579 -1.096016 0.860000
v -1.341579 -1.138442 0.842426
v -1.341579 -1.156016 0.800000
v -1.341579 -1.138442 0.757574
v -1.341579 -1.096016 0.740000
v -1.341579 -1.053589 0.757574
v -1.161579 -1.036016 0.800000
v -1.161579 -1.053589 0.842426
v -1.161579 -1.096016 0.860000
v -1.161579 -1.138442 0.842426
v -1.161579 -1.156016 0.800000
v -1.161579 -1.138442 0.757574
v -1.161579 -1.096016 0.740000
v -1.161579 -1.053589 0.757574
v -1.341579 -1.096016 0.800000
v -1.161579 -1.096016 0.800000
v 0.896016 -1.296016 0.550000
v 1.296016 -1.296016 0.550000
v 1.296016 -0.896016 0.550000
v 0.896016 -0.896016 0.550000
v 0.896016 -1.296016 1.050000
v 1.296016 -1.296016 1.050000
v 1.296016 -0.896016 1.050000
v 0.896016 -0.896016 1.050000
v 1.161579 -1.036016 0.800000
v 1.161579 -1.053589 0.842426
v 1.161579 -1.096016 0.860000
v 1.161579 -1.138442 0.842426
v 1.161579 -1.156016 0.800000
v 1.161579 -1.138442 0.757574
v 1.161579 -1.096016 0.740000
v 1.161579 -1.053589 0.757574
v 1.341579 -1.036016 0.800000
v 1.341579 -1.053589 0.842426
v 1.341579 -1.096016 0.860000
v 1.341579 -1.138442 0.842426
v 1.341579 -1.156016 0.800000
v 1.341579 -1.138442 0.757574
v 1.341579 -1.096016 0.740000
v 1.341579 -1.053589 0.757574
v 1.161579 -1.096016 0.800000
v 1.341579 -1.096016 0.800000
v 2.100000 0.000000 -3.800000
v 2.068096 0.364661 -3.800000
v 1.973355 0.718242 -3.800000
v 1.818653 1.050000 -3.800000
v 1.608693 1.349854 -3.800000
v 1.349854 1.608693 -3.800000
v 1.050000 1.818653 -3.800000
v 0.718242 1.973355 -3.800000
v 0.364661 2.068096 -3.800000
v 0.000000 2.100000 -3.800000
v -0.364661 2.068096 -3.800000
v -0.718242 1.973355 -3.800000
v -1.050000 1.818653 -3.800000
v -1.349854 1.608693 -3.800000
v -1.608693 1.349854 -3.800000
v -1.818653 1.050000 -3.800000
v -1.973355 0.718242 -3.800000
v -2.068096 0.364661 -3.800000
v -2.100000 0.000000 -3.800000
v -2.068096 -0.364661 -3.800000
v -1.973355 -0.718242 -3.800000
v -1.818653 -1.050000 -3.800000
v -1.608693 -1.349854 -3.800000
v -1.349854 -1.608693 -3.800000
v -1.050000 -1.818653 -3.800000
v -0.718242 -1.973355 -3.800000
v -0.364661 -2.068096 -3.800000
v -0.000000 -2.100000 -3.800000
v 0.364661 -2.068096 -3.800000
v 0.718242 -1.973355 -3.800000
v 1.050000 -1.818653 -3.800000
v 1.349854 -1.608693 -3.800000
v 1.608693 -1.349854 -3.800000
v 1.818653 -1.050000 -3.800000
v 1.973355 -0.718242 -3.800000
v 2.068096 -0.364661 -3.800000
v 2.100000 0.000000 -3.366667
v 2.068096 0.364661 -3.366667
v 1.973355 0.718242 -3.366667
v 1.818653 1.050000 -3.366667
v 1.608693 1.349854 -3.366667
v 1.349854 1.608693 -3.366667
v 1.050000 1.818653 -3.366667
v 0.718242 1.973355 -3.366667
v 0.364661 2.068096 -3.366667
v 0.000000 2.100000 -3.366667
v -0.364661 2.068096 -3.366667
v -0.718242 1.973355 -3.366667
v -1.050000 1.818653 -3.366667
v -1.349854 1.608693 -3.366667
v -1.608693 1.349854 -3.366667
v -1.818653 1.050000 -3.366667
v -1.973355 0.718242 -3.366667
v -2.068096 0.364661 -3.366667
v -2.100000 0.000000 -3.366667
v -2.068096 -0.364661 -3.366667
v -1.973355 -0.718242 -3.366667
v -1.818653 -1.050000 -3.366667
v -1.608693 -1.349854 -3.366667
v -1.349854 -1.608693 -3.366667
v -1.050000 -1.818653 -3.366667
v -0.718242 -1.973355 -3.366667
v -0.364661 -2.068096 -3.366667
v -0.000000 -2.100000 -3.366667
v 0.364661 -2.068096 -3.366667
v 0.718242 -1.973355 -3.366667
v 1.050000 -1.818653 -3.366667
v 1.349854 -1.608693 -3.366667
v 1.608693 -1.349854 -3.366667
v 1.818653 -1.050000 -3.366667
v 1.973355 -0.718242 -3.366667
v 2.068096 -0.364661 -3.366667
v 2.100000 0.000000 -2.933333
v 2.068096 0.364661 -2.933333
v 1.973355 0.718242 -2.933333
v 1.818653 1.050000 -2.933333
v 1.608693 1.349854 -2.933333
v 1.349854 1.608693 -2.933333
v 1.050000 1.818653 -2.933333
v 0.718242 1.973355 -2.933333
v 0.364661 2.068096 -2.933333
v 0.000000 2.100000 -2.933333
v -0.364661 2.068096 -2.933333
v -0.718242 1.973355 -2.933333
v -1.050000 1.818653 -2.933333
v -1.349854 1.608693 -2.933333
v -1.608693 1.349854 -2.933333
v -1.818653 1.050000 -2.933333
v -1.973355 0.718242 -2.933333
v -2.068096 0.364661 -2.933333
v -2.100000 0.000000 -2.933333
v -2.068096 -0.364661 -2.933333
v -1.973355 -0.718242 -2.933333
v -1.818653 -1.050000 -2.933333
v -1.608693 -1.349854 -2.933333
v -1.349854 -1.608693 -2.933333
v -1.050000 -1.818653 -2.933333
v -0.718242 -1.973355 -2.933333
v -0.364661 -2.068096 -2.933333
v -0.000000 -2.100000 -2.933333
v 0.364661 -2.068096 -2.933333
v 0.718242 -1.973355 -2.933333
v 1.050000 -1.818653 -2.933333
v 1.349854 -1.608693 -2.933333
v 1.608693 -1.349854 -2.933333
v 1.818653 -1.050000 -2.933333
v 1.973355 -0.718242 -2.933333
v 2.068096 -0.364661 -2.933333
v 2.100000 0.000000 -2.500000
v 2.068096 0.364661 -2.500000
v 1.973355 0.718242 -2.500000
v 1.818653 1.050000 -2.500000
v 1.608693 1.349854 -2.500000
v 1.349854 1.608693 -2.500000
v 1.050000 1.818653 -2.500000
v 0.718242 1.973355 -2.500000
v 0.364661 2.068096 -2.500000
v 0.000000 2.100000 -2.500000
v -0.364661 2.068096 -2.500000
v -0.718242 1.973355 -2.500000
v -1.050000 1.818653 -2.500000
v -1.349854 1.608693 -2.500000
v -1.608693 1.349854 -2.500000
v -1.818653 1.050000 -2.500000
v -1.973355 0.718242 -2.500000
v -2.068096 0.364661 -2.500000
v -2.100000 0.000000 -2.500000
v -2.068096 -0.364661 -2.500000
v -1.973355 -0.718242 -2.500000
v -1.818653 -1.050000 -2.500000
v -1.608693 -1.349854 -2.500000
v -1.349854 -1.608693 -2.500000
v -1.050000 -1.818653 -2.500000
v -0.718242 -1.973355 -2.500000
v -0.364661 -2.068096 -2.500000
v -0.000000 -2.100000 -2.500000
v 0.364661 -2.068096 -2.500000
v 0.718242 -1.973355 -2.500000
v 1.050000 -1.818653 -2.500000
v 1.349854 -1.608693 -2.500000
v 1.608693 -1.349854 -2.500000
v 1.818653 -1.050000 -2.500000
v 1.973355 -0.718242 -2.500000
v 2.068096 -0.364661 -2.500000
v 2.100000 0.000000 -2.066667
v 2.068096 0.364661 -2.066667
v 1.973355 0.718242 -2.066667
v 1.818653 1.050000 -2.066667
v 1.608693 1.349854 -2.066667
v 1.349854 1.608693 -2.066667
v 1.050000 1.818653 -2.066667
v 0.718242 1.973355 -2.066667
v 0.364661 2.068096 -2.066667
v 0.000000 2.100000 -2.066667
v -0.364661 2.068096 -2.066667
v -0.718242 1.973355 -2.066667
v -1.050000 1.818653 -2.066667
v -1.349854 1.608693 -2.066667
v -1.608693 1.349854 -2.066667
v -1.818653 1.050000 -2.066667
v -1.973355 0.718242 -2.066667
v -2.068096 0.364661 -2.066667
v -2.100000 0.000000 -2.066667
v -2.068096 -0.364661 -2.066667
v -1.973355 -0.718242 -2.066667
v -1.818653 -1.050000 -2.066667
v -1.608693 -1.349854 -2.066667
v -1.349854 -1.608693 -2.066667
v -1.050000 -1.818653 -2.066667
v -0.718242 -1.973355 -2.066667
v -0.364661 -2.068096 -2.066667
v -0.000000 -2.100000 -2.066667
v 0.364661 -2.068096 -2.066667
v 0.718242 -1.973355 -2.066667
v 1.050000 -1.818653 -2.066667
v 1.349854 -1.608693 -2.066667
v 1.608693 -1.349854 -2.066667
v 1.818653 -1.050000 -2.066667
v 1.973355 -0.718242 -2.066667
v 2.068096 -0.364661 -2.066667
v 2.100000 0.000000 -1.633333
v 2.068096 0.364661 -1.633333
v 1.973355 0.718242 -1.633333
v 1.818653 1.050000 -1.633333
v 1.608693 1.349854 -1.633333
v 1.349854 1.608693 -1.633333
v 1.050000 1.818653 -1.633333
v 0.718242 1.973355 -1.633333
v 0.364661 2.068096 -1.633333
v 0.000000 2.100000 -1.633333
v -0.364661 2.068096 -1.633333
v -0.718242 1.973355 -1.633333
v -1.050000 1.818653 -1.633333
v -1.349854 1.608693 -1.633333
v -1.608693 1.349854 -1.633333
v -1.818653 1.050000 -1.633333
v -1.973355 0.718242 -1.633333
v -2.068096 0.364661 -1.633333
v -2.100000 0.000000 -1.633333
v -2.068096 -0.364661 -1.633333
v -1.973355 -0.718242 -1.633333
v -1.818653 -1.050000 -1.633333
v -1.608693 -1.349854 -1.633333
v -1.349854 -1.608693 -1.633333
v -1.050000 -1.818653 -1.633333
v -0.718242 -1.973355 -1.633333
v -0.364661 -2.068096 -1.633333
v -0.000000 -2.100000 -1.633333
v 0.364661 -2.068096 -1.633333
v 0.718242 -1.973355 -1.633333
v 1.050000 -1.818653 -1.633333
v 1.349854 -1.608693 -1.633333
v 1.608693 -1.349854 -1.633333
v 1.818653 -1.050000 -1.633333
v 1.973355 -0.718242 -1.633333
v 2.068096 -0.364661 -1.633333
v 2.100000 0.000000 -1.200000
v 2.068096 0.364661 -1.200000
v 1.973355 0.718242 -1.200000
v 1.818653 1.050000 -1.200000
v 1.608693 1.349854 -1.200000
v 1.349854 1.608693 -1.200000
v 1.050000 1.818653 -1.200000
v 0.718242 1.973355 -1.200000
v 0.364661 2.068096 -1.200000
v 0.000000 2.100000 -1.200000
v -0.364661 2.068096 -1.200000
v -0.718242 1.973355 -1.200000
v -1.050000 1.818653 -1.200000
v -1.349854 1.608693 -1.200000
v -1.608693 1.349854 -1.200000
v -1.818653 1.050000 -1.200000
v -1.973355 0.718242 -1.200000
v -2.068096 0.364661 -1.200000
v -2.100000 0.000000 -1.200000
v -2.068096 -0.364661 -1.200000
v -1.973355 -0.718242 -1.200000
v -1.818653 -1.050000 -1.200000
v -1.608693 -1.349854 -1.200000
v -1.349854 -1.608693 -1.200000
v -1.050000 -1.818653 -1.200000
v -0.718242 -1.973355 -1.200000
v -0.364661 -2.068096 -1.200000
v -0.000000 -2.100000 -1.200000
v 0.364661 -2.068096 -1.200000
v 0.718242 -1.973355 -1.200000
v 1.050000 -1.818653 -1.200000
v 1.349854 -1.608693 -1.200000
v 1.608693 -1.349854 -1.200000
v 1.818653 -1.050000 -1.200000
v 1.973355 -0.718242 -1.200000
v 2.068096 -0.364661 -1.200000
v 0.000000 0.000000 -3.800000
v 0.000000 0.000000 -1.200000
v -4.700000 -0.050000 -3.700000
v 4.700000 -0.050000 -3.700000
v 4.700000 0.050000 -3.700000
v -4.700000 0.050000 -3.700000
v -4.700000 -0.050000 -1.900000
v 4.700000 -0.050000 -1.900000
v 4.700000 0.050000 -1.900000
v -4.700000 0.050000 -1.900000
v 0.550000 0.000000 -4.550000
v 0.523081 0.169959 -4.550000
v 0.444959 0.323282 -4.550000
v 0.323282 0.444959 -4.550000
v 0.169959 0.523081 -4.550000
v 0.000000 0.550000 -4.550000
v -0.169959 0.523081 -4.550000
v -0.323282 0.444959 -4.550000
v -0.444959 0.323282 -4.550000
v -0.523081 0.169959 -4.550000
v -0.550000 0.000000 -4.550000
v -0.523081 -0.169959 -4.550000
v -0.444959 -0.323282 -4.550000
v -0.323282 -0.444959 -4.550000
v -0.169959 -0.523081 -4.550000
v -0.000000 -0.550000 -4.550000
v 0.169959 -0.523081 -4.550000
v 0.323282 -0.444959 -4.550000
v 0.444959 -0.323282 -4.550000
v 0.523081 -0.169959 -4.550000
v 0.550000 0.000000 -4.250000
v 0.523081 0.169959 -4.250000
v 0.444959 0.323282 -4.250000
v 0.323282 0.444959 -4.250000
v 0.169959 0.523081 -4.250000
v 0.000000 0.550000 -4.250000
v -0.169959 0.523081 -4.250000
v -0.323282 0.444959 -4.250000
v -0.444959 0.323282 -4.250000
v -0.523081 0.169959 -4.250000
v -0.550000 0.000000 -4.250000
v -0.523081 -0.169959 -4.250000
v -0.444959 -0.323282 -4.250000
v -0.323282 -0.444959 -4.250000
v -0.169959 -0.523081 -4.250000
v -0.000000 -0.550000 -4.250000
v 0.169959 -0.523081 -4.250000
v 0.323282 -0.444959 -4.250000
v 0.444959 -0.323282 -4.250000
v 0.523081 -0.169959 -4.250000
v 0.550000 0.000000 -3.950000
v 0.523081 0.169959 -3.950000
v 0.444959 0.323282 -3.950000
v 0.323282 0.444959 -3.950000
v 0.169959 0.523081 -3.950000
v 0.000000 0.550000 -3.950000
v -0.169959 0.523081 -3.950000
v -0.323282 0.444959 -3.950000
v -0.444959 0.323282 -3.950000
v -0.523081 0.169959 -3.950000
v -0.550000 0.000000 -3.950000
v -0.523081 -0.169959 -3.950000
v -0.444959 -0.323282 -3.950000
v -0.323282 -0.444959 -3.950000
v -0.169959 -0.523081 -3.950000
v -0.000000 -0.550000 -3.950000
v 0.169959 -0.523081 -3.950000
v 0.323282 -0.444959 -3.950000
v 0.444959 -0.323282 -3.950000
v 0.523081 -0.169959 -3.950000
v 0.550000 0.000000 -3.650000
v 0.523081 0.169959 -3.650000
v 0.444959 0.323282 -3.650000
v 0.323282 0.444959 -3.650000
v 0.169959 0.523081 -3.650000
v 0.000000 0.550000 -3.650000
v -0.169959 0.523081 -3.650000
v -0.323282 0.444959 -3.650000
v -0.444959 0.323282 -3.650000
v -0.523081 0.169959 -3.650000
v -0.550000 0.000000 -3.650000
v -0.523081 -0.169959 -3.650000
v -0.444959 -0.323282 -3.650000
v -0.323282 -0.444959 -3.650000
v -0.169959 -0.523081 -3.650000
v -0.000000 -0.550000 -3.650000
v 0.169959 -0.523081 -3.650000
v 0.323282 -0.444959 -3.650000
v 0.444959 -0.323282 -3.650000
v 0.523081 -0.169959 -3.650000
v 0.000000 0.000000 -4.550000
v 0.000000 0.000000 -3.650000

g CrewCapsuleV2
s 1
f 1 37 38
f 1 38 2
f 2 38 39
f 2 39 3
f 3 39 40
f 3 40 4
f 4 40 41
f 4 41 5
f 5 41 42
f 5 42 6
f 6 42 43
f 6 43 7
f 7 43 44
f 7 44 8
f 8 44 45
f 8 45 9
f 9 45 46
f 9 46 10
f 10 46 47
f 10 47 11
f 11 47 48
f 11 48 12
f 12 48 49
f 12 49 13
f 13 49 50
f 13 50 14
f 14 50 51
f 14 51 15
f 15 51 52
f 15 52 16
f 16 52 53
f 16 53 17
f 17 53 54
f 17 54 18
f 18 54 55
f 18 55 19
f 19 55 56
f 19 56 20
f 20 56 57
f 20 57 21
f 21 57 58
f 21 58 22
f 22 58 59
f 22 59 23
f 23 59 60
f 23 60 24
f 24 60 61
f 24 61 25
f 25 61 62
f 25 62 26
f 26 62 63
f 26 63 27
f 27 63 64
f 27 64 28
f 28 64 65
f 28 65 29
f 29 65 66
f 29 66 30
f 30 66 67
f 30 67 31
f 31 67 68
f 31 68 32
f 32 68 69
f 32 69 33
f 33 69 70
f 33 70 34
f 34 70 71
f 34 71 35
f 35 71 72
f 35 72 36
f 36 72 37
f 36 37 1
f 37 73 74
f 37 74 38
f 38 74 75
f 38 75 39
f 39 75 76
f 39 76 40
f 40 76 77
f 40 77 41
f 41 77 78
f 41 78 42
f 42 78 79
f 42 79 43
f 43 79 80
f 43 80 44
f 44 80 81
f 44 81 45
f 45 81 82
f 45 82 46
f 46 82 83
f 46 83 47
f 47 83 84
f 47 84 48
f 48 84 85
f 48 85 49
f 49 85 86
f 49 86 50
f 50 86 87
f 50 87 51
f 51 87 88
f 51 88 52
f 52 88 89
f 52 89 53
f 53 89 90
f 53 90 54
f 54 90 91
f 54 91 55
f 55 91 92
f 55 92 56
f 56 92 93
f 56 93 57
f 57 93 94
f 57 94 58
f 58 94 95
f 58 95 59
f 59 95 96
f 59 96 60
f 60 96 97
f 60 97 61
f 61 97 98
f 61 98 62
f 62 98 99
f 62 99 63
f 63 99 100
f 63 100 64
f 64 100 101
f 64 101 65
f 65 101 102
f 65 102 66
f 66 102 103
f 66 103 67
f 67 103 104
f 67 104 68
f 68 104 105
f 68 105 69
f 69 105 106
f 69 106 70
f 70 106 107
f 70 107 71
f 71 107 108
f 71 108 72
f 72 108 73
f 72 73 37
f 73 109 110
f 73 110 74
f 74 110 111
f 74 111 75
f 75 111 112
f 75 112 76
f 76 112 113
f 76 113 77
f 77 113 114
f 77 114 78
f 78 114 115
f 78 115 79
f 79 115 116
f 79 116 80
f 80 116 117
f 80 117 81
f 81 117 118
f 81 118 82
f 82 118 119
f 82 119 83
f 83 119 120
f 83 120 84
f 84 120 121
f 84 121 85
f 85 121 122
f 85 122 86
f 86 122 123
f 86 123 87
f 87 123 124
f 87 124 88
f 88 124 125
f 88 125 89
f 89 125 126
f 89 126 90
f 90 126 127
f 90 127 91
f 91 127 128
f 91 128 92
f 92 128 129
f 92 129 93
f 93 129 130
f 93 130 94
f 94 130 131
f 94 131 95
f 95 131 132
f 95 132 96
f 96 132 133
f 96 133 97
f 97 133 134
f 97 134 98
f 98 134 135
f 98 135 99
f 99 135 136
f 99 136 100
f 100 136 137
f 100 137 101
f 101 137 138
f 101 138 102
f 102 138 139
f 102 139 103
f 103 139 140
f 103 140 104
f 104 140 141
f 104 141 105
f 105 141 142
f 105 142 106
f 106 142 143
f 106 143 107
f 107 143 144
f 107 144 108
f 108 144 109
f 108 109 73
f 109 145 146
f 109 146 110
f 110 146 147
f 110 147 111
f 111 147 148
f 111 148 112
f 112 148 149
f 112 149 113
f 113 149 150
f 113 150 114
f 114 150 151
f 114 151 115
f 115 151 152
f 115 152 116
f 116 152 153
f 116 153 117
f 117 153 154
f 117 154 118
f 118 154 155
f 118 155 119
f 119 155 156
f 119 156 120
f 120 156 157
f 120 157 121
f 121 157 158
f 121 158 122
f 122 158 159
f 122 159 123
f 123 159 160
f 123 160 124
f 124 160 161
f 124 161 125
f 125 161 162
f 125 162 126
f 126 162 163
f 126 163 127
f 127 163 164
f 127 164 128
f 128 164 165
f 128 165 129
f 129 165 166
f 129 166 130
f 130 166 167
f 130 167 131
f 131 167 168
f 131 168 132
f 132 168 169
f 132 169 133
f 133 169 170
f 133 170 134
f 134 170 171
f 134 171 135
f 135 171 172
f 135 172 136
f 136 172 173
f 136 173 137
f 137 173 174
f 137 174 138
f 138 174 175
f 138 175 139
f 139 175 176
f 139 176 140
f 140 176 177
f 140 177 141
f 141 177 178
f 141 178 142
f 142 178 179
f 142 179 143
f 143 179 180
f 143 180 144
f 144 180 145
f 144 145 109
f 145 181 182
f 145 182 146
f 146 182 183
f 146 183 147
f 147 183 184
f 147 184 148
f 148 184 185
f 148 185 149
f 149 185 186
f 149 186 150
f 150 186 187
f 150 187 151
f 151 187 188
f 151 188 152
f 152 188 189
f 152 189 153
f 153 189 190
f 153 190 154
f 154 190 191
f 154 191 155
f 155 191 192
f 155 192 156
f 156 192 193
f 156 193 157
f 157 193 194
f 157 194 158
f 158 194 195
f 158 195 159
f 159 195 196
f 159 196 160
f 160 196 197
f 160 197 161
f 161 197 198
f 161 198 162
f 162 198 199
f 162 199 163
f 163 199 200
f 163 200 164
f 164 200 201
f 164 201 165
f 165 201 202
f 165 202 166
f 166 202 203
f 166 203 167
f 167 203 204
f 167 204 168
f 168 204 205
f 168 205 169
f 169 205 206
f 169 206 170
f 170 206 207
f 170 207 171
f 171 207 208
f 171 208 172
f 172 208 209
f 172 209 173
f 173 209 210
f 173 210 174
f 174 210 211
f 174 211 175
f 175 211 212
f 175 212 176
f 176 212 213
f 176 213 177
f 177 213 214
f 177 214 178
f 178 214 215
f 178 215 179
f 179 215 216
f 179 216 180
f 180 216 181
f 180 181 145
f 181 217 218
f 181 218 182
f 182 218 219
f 182 219 183
f 183 219 220
f 183 220 184
f 184 220 221
f 184 221 185
f 185 221 222
f 185 222 186
f 186 222 223
f 186 223 187
f 187 223 224
f 187 224 188
f 188 224 225
f 188 225 189
f 189 225 226
f 189 226 190
f 190 226 227
f 190 227 191
f 191 227 228
f 191 228 192
f 192 228 229
f 192 229 193
f 193 229 230
f 193 230 194
f 194 230 231
f 194 231 195
f 195 231 232
f 195 232 196
f 196 232 233
f 196 233 197
f 197 233 234
f 197 234 198
f 198 234 235
f 198 235 199
f 199 235 236
f 199 236 200
f 200 236 237
f 200 237 201
f 201 237 238
f 201 238 202
f 202 238 239
f 202 239 203
f 203 239 240
f 203 240 204
f 204 240 241
f 204 241 205
f 205 241 242
f 205 242 206
f 206 242 243
f 206 243 207
f 207 243 244
f 207 244 208
f 208 244 245
f 208 245 209
f 209 245 246
f 209 246 210
f 210 246 247
f 210 247 211
f 211 247 248
f 211 248 212
f 212 248 249
f 212 249 213
f 213 249 250
f 213 250 214
f 214 250 251
f 214 251 215
f 215 251 252
f 215 252 216
f 216 252 217
f 216 217 181
f 217 253 254
f 217 254 218
f 218 254 255
f 218 255 219
f 219 255 256
f 219 256 220
f 220 256 257
f 220 257 221
f 221 257 258
f 221 258 222
f 222 258 259
f 222 259 223
f 223 259 260
f 223 260 224
f 224 260 261
f 224 261 225
f 225 261 262
f 225 262 226
f 226 262 263
f 226 263 227
f 227 263 264
f 227 264 228
f 228 264 265
f 228 265 229
f 229 265 266
f 229 266 230
f 230 266 267
f 230 267 231
f 231 267 268
f 231 268 232
f 232 268 269
f 232 269 233
f 233 269 270
f 233 270 234
f 234 270 271
f 234 271 235
f 235 271 272
f 235 272 236
f 236 272 273
f 236 273 237
f 237 273 274
f 237 274 238
f 238 274 275
f 238 275 239
f 239 275 276
f 239 276 240
f 240 276 277
f 240 277 241
f 241 277 278
f 241 278 242
f 242 278 279
f 242 279 243
f 243 279 280
f 243 280 244
f 244 280 281
f 244 281 245
f 245 281 282
f 245 282 246
f 246 282 283
f 246 283 247
f 247 283 284
f 247 284 248
f 248 284 285
f 248 285 249
f 249 285 286
f 249 286 250
f 250 286 287
f 250 287 251
f 251 287 288
f 251 288 252
f 252 288 253
f 252 253 217
f 253 289 290
f 253 290 254
f 254 290 291
f 254 291 255
f 255 291 292
f 255 292 256
f 256 292 293
f 256 293 257
f 257 293 294
f 257 294 258
f 258 294 295
f 258 295 259
f 259 295 296
f 259 296 260
f 260 296 297
f 260 297 261
f 261 297 298
f 261 298 262
f 262 298 299
f 262 299 263
f 263 299 300
f 263 300 264
f 264 300 301
f 264 301 265
f 265 301 302
f 265 302 266
f 266 302 303
f 266 303 267
f 267 303 304
f 267 304 268
f 268 304 305
f 268 305 269
f 269 305 306
f 269 306 270
f 270 306 307
f 270 307 271
f 271 307 308
f 271 308 272
f 272 308 309
f 272 309 273
f 273 309 310
f 273 310 274
f 274 310 311
f 274 311 275
f 275 311 312
f 275 312 276
f 276 312 313
f 276 313 277
f 277 313 314
f 277 314 278
f 278 314 315
f 278 315 279
f 279 315 316
f 279 316 280
f 280 316 317
f 280 317 281
f 281 317 318
f 281 318 282
f 282 318 319
f 282 319 283
f 283 319 320
f 283 320 284
f 284 320 321
f 284 321 285
f 285 321 322
f 285 322 286
f 286 322 323
f 286 323 287
f 287 323 324
f 287 324 288
f 288 324 289
f 288 289 253
f 289 325 326
f 289 326 290
f 290 326 327
f 290 327 291
f 291 327 328
f 291 328 292
f 292 328 329
f 292 329 293
f 293 329 330
f 293 330 294
f 294 330 331
f 294 331 295
f 295 331 332
f 295 332 296
f 296 332 333
f 296 333 297
f 297 333 334
f 297 334 298
f 298 334 335
f 298 335 299
f 299 335 336
f 299 336 300
f 300 336 337
f 300 337 301
f 301 337 338
f 301 338 302
f 302 338 339
f 302 339 303
f 303 339 340
f 303 340 304
f 304 340 341
f 304 341 305
f 305 341 342
f 305 342 306
f 306 342 343
f 306 343 307
f 307 343 344
f 307 344 308
f 308 344 345
f 308 345 309
f 309 345 346
f 309 346 310
f 310 346 347
f 310 347 311
f 311 347 348
f 311 348 312
f 312 348 349
f 312 349 313
f 313 349 350
f 313 350 314
f 314 350 351
f 314 351 315
f 315 351 352
f 315 352 316
f 316 352 353
f 316 353 317
f 317 353 354
f 317 354 318
f 318 354 355
f 318 355 319
f 319 355 356
f 319 356 320
f 320 356 357
f 320 357 321
f 321 357 358
f 321 358 322
f 322 358 359
f 322 359 323
f 323 359 360
f 323 360 324
f 324 360 325
f 324 325 289
f 325 361 362
f 325 362 326
f 326 362 363
f 326 363 327
f 327 363 364
f 327 364 328
f 328 364 365
f 328 365 329
f 329 365 366
f 329 366 330
f 330 366 367
f 330 367 331
f 331 367 368
f 331 368 332
f 332 368 369
f 332 369 333
f 333 369 370
f 333 370 334
f 334 370 371
f 334 371 335
f 335 371 372
f 335 372 336
f 336 372 373
f 336 373 337
f 337 373 374
f 337 374 338
f 338 374 375
f 338 375 339
f 339 375 376
f 339 376 340
f 340 376 377
f 340 377 341
f 341 377 378
f 341 378 342
f 342 378 379
f 342 379 343
f 343 379 380
f 343 380 344
f 344 380 381
f 344 381 345
f 345 381 382
f 345 382 346
f 346 382 383
f 346 383 347
f 347 383 384
f 347 384 348
f 348 384 385
f 348 385 349
f 349 385 386
f 349 386 350
f 350 386 387
f 350 387 351
f 351 387 388
f 351 388 352
f 352 388 389
f 352 389 353
f 353 389 390
f 353 390 354
f 354 390 391
f 354 391 355
f 355 391 392
f 355 392 356
f 356 392 393
f 356 393 357
f 357 393 394
f 357 394 358
f 358 394 395
f 358 395 359
f 359 395 396
f 359 396 360
f 360 396 361
f 360 361 325
f 361 397 398
f 361 398 362
f 362 398 399
f 362 399 363
f 363 399 400
f 363 400 364
f 364 400 401
f 364 401 365
f 365 401 402
f 365 402 366
f 366 402 403
f 366 403 367
f 367 403 404
f 367 404 368
f 368 404 405
f 368 405 369
f 369 405 406
f 369 406 370
f 370 406 407
f 370 407 371
f 371 407 408
f 371 408 372
f 372 408 409
f 372 409 373
f 373 409 410
f 373 410 374
f 374 410 411
f 374 411 375
f 375 411 412
f 375 412 376
f 376 412 413
f 376 413 377
f 377 413 414
f 377 414 378
f 378 414 415
f 378 415 379
f 379 415 416
f 379 416 380
f 380 416 417
f 380 417 381
f 381 417 418
f 381 418 382
f 382 418 419
f 382 419 383
f 383 419 420
f 383 420 384
f 384 420 421
f 384 421 385
f 385 421 422
f 385 422 386
f 386 422 423
f 386 423 387
f 387 423 424
f 387 424 388
f 388 424 425
f 388 425 389
f 389 425 426
f 389 426 390
f 390 426 427
f 390 427 391
f 391 427 428
f 391 428 392
f 392 428 429
f 392 429 393
f 393 429 430
f 393 430 394
f 394 430 431
f 394 431 395
f 395 431 432
f 395 432 396
f 396 432 397
f 396 397 361
f 397 433 434
f 397 434 398
f 398 434 435
f 398 435 399
f 399 435 436
f 399 436 400
f 400 436 437
f 400 437 401
f 401 437 438
f 401 438 402
f 402 438 439
f 402 439 403
f 403 439 440
f 403 440 404
f 404 440 441
f 404 441 405
f 405 441 442
f 405 442 406
f 406 442 443
f 406 443 407
f 407 443 444
f 407 444 408
f 408 444 445
f 408 445 409
f 409 445 446
f 409 446 410
f 410 446 447
f 410 447 411
f 411 447 448
f 411 448 412
f 412 448 449
f 412 449 413
f 413 449 450
f 413 450 414
f 414 450 451
f 414 451 415
f 415 451 452
f 415 452 416
f 416 452 453
f 416 453 417
f 417 453 454
f 417 454 418
f 418 454 455
f 418 455 419
f 419 455 456
f 419 456 420
f 420 456 457
f 420 457 421
f 421 457 458
f 421 458 422
f 422 458 459
f 422 459 423
f 423 459 460
f 423 460 424
f 424 460 461
f 424 461 425
f 425 461 462
f 425 462 426
f 426 462 463
f 426 463 427
f 427 463 464
f 427 464 428
f 428 464 465
f 428 465 429
f 429 465 466
f 429 466 430
f 430 466 467
f 430 467 431
f 431 467 468
f 431 468 432
f 432 468 433
f 432 433 397
f 433 469 470
f 433 470 434
f 434 470 471
f 434 471 435
f 435 471 472
f 435 472 436
f 436 472 473
f 436 473 437
f 437 473 474
f 437 474 438
f 438 474 475
f 438 475 439
f 439 475 476
f 439 476 440
f 440 476 477
f 440 477 441
f 441 477 478
f 441 478 442
f 442 478 479
f 442 479 443
f 443 479 480
f 443 480 444
f 444 480 481
f 444 481 445
f 445 481 482
f 445 482 446
f 446 482 483
f 446 483 447
f 447 483 484
f 447 484 448
f 448 484 485
f 448 485 449
f 449 485 486
f 449 486 450
f 450 486 487
f 450 487 451
f 451 487 488
f 451 488 452
f 452 488 489
f 452 489 453
f 453 489 490
f 453 490 454
f 454 490 491
f 454 491 455
f 455 491 492
f 455 492 456
f 456 492 493
f 456 493 457
f 457 493 494
f 457 494 458
f 458 494 495
f 458 495 459
f 459 495 496
f 459 496 460
f 460 496 497
f 460 497 461
f 461 497 498
f 461 498 462
f 462 498 499
f 462 499 463
f 463 499 500
f 463 500 464
f 464 500 501
f 464 501 465
f 465 501 502
f 465 502 466
f 466 502 503
f 466 503 467
f 467 503 504
f 467 504 468
f 468 504 469
f 468 469 433
f 469 505 506
f 469 506 470
f 470 506 507
f 470 507 471
f 471 507 508
f 471 508 472
f 472 508 509
f 472 509 473
f 473 509 510
f 473 510 474
f 474 510 511
f 474 511 475
f 475 511 512
f 475 512 476
f 476 512 513
f 476 513 477
f 477 513 514
f 477 514 478
f 478 514 515
f 478 515 479
f 479 515 516
f 479 516 480
f 480 516 517
f 480 517 481
f 481 517 518
f 481 518 482
f 482 518 519
f 482 519 483
f 483 519 520
f 483 520 484
f 484 520 521
f 484 521 485
f 485 521 522
f 485 522 486
f 486 522 523
f 486 523 487
f 487 523 524
f 487 524 488
f 488 524 525
f 488 525 489
f 489 525 526
f 489 526 490
f 490 526 527
f 490 527 491
f 491 527 528
f 491 528 492
f 492 528 529
f 492 529 493
f 493 529 530
f 493 530 494
f 494 530 531
f 494 531 495
f 495 531 532
f 495 532 496
f 496 532 533
f 496 533 497
f 497 533 534
f 497 534 498
f 498 534 535
f 498 535 499
f 499 535 536
f 499 536 500
f 500 536 537
f 500 537 501
f 501 537 538
f 501 538 502
f 502 538 539
f 502 539 503
f 503 539 540
f 503 540 504
f 504 540 505
f 504 505 469
f 505 541 542
f 505 542 506
f 506 542 543
f 506 543 507
f 507 543 544
f 507 544 508
f 508 544 545
f 508 545 509
f 509 545 546
f 509 546 510
f 510 546 547
f 510 547 511
f 511 547 548
f 511 548 512
f 512 548 549
f 512 549 513
f 513 549 550
f 513 550 514
f 514 550 551
f 514 551 515
f 515 551 552
f 515 552 516
f 516 552 553
f 516 553 517
f 517 553 554
f 517 554 518
f 518 554 555
f 518 555 519
f 519 555 556
f 519 556 520
f 520 556 557
f 520 557 521
f 521 557 558
f 521 558 522
f 522 558 559
f 522 559 523
f 523 559 560
f 523 560 524
f 524 560 561
f 524 561 525
f 525 561 562
f 525 562 526
f 526 562 563
f 526 563 527
f 527 563 564
f 527 564 528
f 528 564 565
f 528 565 529
f 529 565 566
f 529 566 530
f 530 566 567
f 530 567 531
f 531 567 568
f 531 568 532
f 532 568 569
f 532 569 533
f 533 569 570
f 533 570 534
f 534 570 571
f 534 571 535
f 535 571 572
f 535 572 536
f 536 572 573
f 536 573 537
f 537 573 574
f 537 574 538
f 538 574 575
f 538 575 539
f 539 575 576
f 539 576 540
f 540 576 541
f 540 541 505
f 541 577 578
f 541 578 542
f 542 578 579
f 542 579 543
f 543 579 580
f 543 580 544
f 544 580 581
f 544 581 545
f 545 581 582
f 545 582 546
f 546 582 583
f 546 583 547
f 547 583 584
f 547 584 548
f 548 584 585
f 548 585 549
f 549 585 586
f 549 586 550
f 550 586 587
f 550 587 551
f 551 587 588
f 551 588 552
f 552 588 589
f 552 589 553
f 553 589 590
f 553 590 554
f 554 590 591
f 554 591 555
f 555 591 592
f 555 592 556
f 556 592 593
f 556 593 557
f 557 593 594
f 557 594 558
f 558 594 595
f 558 595 559
f 559 595 596
f 559 596 560
f 560 596 597
f 560 597 561
f 561 597 598
f 561 598 562
f 562 598 599
f 562 599 563
f 563 599 600
f 563 600 564
f 564 600 601
f 564 601 565
f 565 601 602
f 565 602 566
f 566 602 603
f 566 603 567
f 567 603 604
f 567 604 568
f 568 604 605
f 568 605 569
f 569 605 606
f 569 606 570
f 570 606 607
f 570 607 571
f 571 607 608
f 571 608 572
f 572 608 609
f 572 609 573
f 573 609 610
f 573 610 574
f 574 610 611
f 574 611 575
f 575 611 612
f 575 612 576
f 576 612 577
f 576 577 541
f 613 637 638
f 613 638 614
f 614 638 639
f 614 639 615
f 615 639 640
f 615 640 616
f 616 640 641
f 616 641 617
f 617 641 642
f 617 642 618
f 618 642 643
f 618 643 619
f 619 643 644
f 619 644 620
f 620 644 645
f 620 645 621
f 621 645 646
f 621 646 622
f 622 646 647
f 622 647 623
f 623 647 648
f 623 648 624
f 624 648 649
f 624 649 625
f 625 649 650
f 625 650 626
f 626 650 651
f 626 651 627
f 627 651 652
f 627 652 628
f 628 652 653
f 628 653 629
f 629 653 654
f 629 654 630
f 630 654 655
f 630 655 631
f 631 655 656
f 631 656 632
f 632 656 657
f 632 657 633
f 633 657 658
f 633 658 634
f 634 658 659
f 634 659 635
f 635 659 660
f 635 660 636
f 636 660 637
f 636 637 613
f 637 661 662
f 637 662 638
f 638 662 663
f 638 663 639
f 639 663 664
f 639 664 640
f 640 664 665
f 640 665 641
f 641 665 666
f 641 666 642
f 642 666 667
f 642 667 643
f 643 667 668
f 643 668 644
f 644 668 669
f 644 669 645
f 645 669 670
f 645 670 646
f 646 670 671
f 646 671 647
f 647 671 672
f 647 672 648
f 648 672 673
f 648 673 649
f 649 673 674
f 649 674 650
f 650 674 675
f 650 675 651
f 651 675 676
f 651 676 652
f 652 676 677
f 652 677 653
f 653 677 678
f 653 678 654
f 654 678 679
f 654 679 655
f 655 679 680
f 655 680 656
f 656 680 681
f 656 681 657
f 657 681 682
f 657 682 658
f 658 682 683
f 658 683 659
f 659 683 684
f 659 684 660
f 660 684 661
f 660 661 637
f 685 614 613
f 686 661 662
f 685 615 614
f 686 662 663
f 685 616 615
f 686 663 664
f 685 617 616
f 686 664 665
f 685 618 617
f 686 665 666
f 685 619 618
f 686 666 667
f 685 620 619
f 686 667 668
f 685 621 620
f 686 668 669
f 685 622 621
f 686 669 670
f 685 623 622
f 686 670 671
f 685 624 623
f 686 671 672
f 685 625 624
f 686 672 673
f 685 626 625
f 686 673 674
f 685 627 626
f 686 674 675
f 685 628 627
f 686 675 676
f 685 629 628
f 686 676 677
f 685 630 629
f 686 677 678
f 685 631 630
f 686 678 679
f 685 632 631
f 686 679 680
f 685 633 632
f 686 680 681
f 685 634 633
f 686 681 682
f 685 635 634
f 686 682 683
f 685 636 635
f 686 683 684
f 685 613 636
f 686 684 661
f 687 689 688
f 687 690 689
f 691 692 693
f 691 693 694
f 687 691 694
f 687 694 690
f 688 689 693
f 688 693 692
f 690 694 693
f 690 693 689
f 687 688 692
f 687 692 691
f 695 697 696
f 695 698 697
f 699 700 701
f 699 701 702
f 695 699 702
f 695 702 698
f 696 697 701
f 696 701 700
f 698 702 701
f 698 701 697
f 695 696 700
f 695 700 699
f 703 705 704
f 703 706 705
f 707 708 709
f 707 709 710
f 703 707 710
f 703 710 706
f 704 705 709
f 704 709 708
f 706 710 709
f 706 709 705
f 703 704 708
f 703 708 707
f 711 713 712
f 711 714 713
f 715 716 717
f 715 717 718
f 711 715 718
f 711 718 714
f 712 713 717
f 712 717 716
f 714 718 717
f 714 717 713
f 711 712 716
f 711 716 715
f 719 721 720
f 719 722 721
f 723 724 725
f 723 725 726
f 719 723 726
f 719 726 722
f 720 721 725
f 720 725 724
f 722 726 725
f 722 725 721
f 719 720 724
f 719 724 723
f 727 729 728
f 727 730 729
f 731 732 733
f 731 733 734
f 727 731 734
f 727 734 730
f 728 729 733
f 728 733 732
f 730 734 733
f 730 733 729
f 727 728 732
f 727 732 731
f 735 743 744
f 735 744 736
f 736 744 745
f 736 745 737
f 737 745 746
f 737 746 738
f 738 746 747
f 738 747 739
f 739 747 748
f 739 748 740
f 740 748 749
f 740 749 741
f 741 749 750
f 741 750 742
f 742 750 743
f 742 743 735
f 751 736 735
f 752 743 744
f 751 737 736
f 752 744 745
f 751 738 737
f 752 745 746
f 751 739 738
f 752 746 747
f 751 740 739
f 752 747 748
f 751 741 740
f 752 748 749
f 751 742 741
f 752 749 750
f 751 735 742
f 752 750 743
f 753 755 754
f 753 756 755
f 757 758 759
f 757 759 760
f 753 757 760
f 753 760 756
f 754 755 759
f 754 759 758
f 756 760 759
f 756 759 755
f 753 754 758
f 753 758 757
f 761 769 770
f 761 770 762
f 762 770 771
f 762 771 763
f 763 771 772
f 763 772 764
f 764 772 773
f 764 773 765
f 765 773 774
f 765 774 766
f 766 774 775
f 766 775 767
f 767 775 776
f 767 776 768
f 768 776 769
f 768 769 761
f 777 762 761
f 778 769 770
f 777 763 762
f 778 770 771
f 777 764 763
f 778 771 772
f 777 765 764
f 778 772 773
f 777 766 765
f 778 773 774
f 777 767 766
f 778 774 775
f 777 768 767
f 778 775 776
f 777 761 768
f 778 776 769
f 779 781 780
f 779 782 781
f 783 784 785
f 783 785 786
f 779 783 786
f 779 786 782
f 780 781 785
f 780 785 784
f 782 786 785
f 782 785 781
f 779 780 784
f 779 784 783
f 787 795 796
f 787 796 788
f 788 796 797
f 788 797 789
f 789 797 798
f 789 798 790
f 790 798 799
f 790 799 791
f 791 799 800
f 791 800 792
f 792 800 801
f 792 801 793
f 793 801 802
f 793 802 794
f 794 802 795
f 794 795 787
f 803 788 787
f 804 795 796
f 803 789 788
f 804 796 797
f 803 790 789
f 804 797 798
f 803 791 790
f 804 798 799
f 803 792 791
f 804 799 800
f 803 793 792
f 804 800 801
f 803 794 793
f 804 801 802
f 803 787 794
f 804 802 795
f 805 807 806
f 805 808 807
f 809 810 811
f 809 811 812
f 805 809 812
f 805 812 808
f 806 807 811
f 806 811 810
f 808 812 811
f 808 811 807
f 805 806 810
f 805 810 809
f 813 821 822
f 813 822 814
f 814 822 823
f 814 823 815
f 815 823 824
f 815 824 816
f 816 824 825
f 816 825 817
f 817 825 826
f 817 826 818
f 818 826 827
f 818 827 819
f 819 827 828
f 819 828 820
f 820 828 821
f 820 821 813
f 829 814 813
f 830 821 822
f 829 815 814
f 830 822 823
f 829 816 815
f 830 823 824
f 829 817 816
f 830 824 825
f 829 818 817
f 830 825 826
f 829 819 818
f 830 826 827
f 829 820 819
f 830 827 828
f 829 813 820
f 830 828 821
f 831 867 868
f 831 868 832
f 832 868 869
f 832 869 833
f 833 869 870
f 833 870 834
f 834 870 871
f 834 871 835
f 835 871 872
f 835 872 836
f 836 872 873
f 836 873 837
f 837 873 874
f 837 874 838
f 838 874 875
f 838 875 839
f 839 875 876
f 839 876 840
f 840 876 877
f 840 877 841
f 841 877 878
f 841 878 842
f 842 878 879
f 842 879 843
f 843 879 880
f 843 880 844
f 844 880 881
f 844 881 845
f 845 881 882
f 845 882 846
f 846 882 883
f 846 883 847
f 847 883 884
f 847 884 848
f 848 884 885
f 848 885 849
f 849 885 886
f 849 886 850
f 850 886 887
f 850 887 851
f 851 887 888
f 851 888 852
f 852 888 889
f 852 889 853
f 853 889 890
f 853 890 854
f 854 890 891
f 854 891 855
f 855 891 892
f 855 892 856
f 856 892 893
f 856 893 857
f 857 893 894
f 857 894 858
f 858 894 895
f 858 895 859
f 859 895 896
f 859 896 860
f 860 896 897
f 860 897 861
f 861 897 898
f 861 898 862
f 862 898 899
f 862 899 863
f 863 899 900
f 863 900 864
f 864 900 901
f 864 901 865
f 865 901 902
f 865 902 866
f 866 902 867
f 866 867 831
f 867 903 904
f 867 904 868
f 868 904 905
f 868 905 869
f 869 905 906
f 869 906 870
f 870 906 907
f 870 907 871
f 871 907 908
f 871 908 872
f 872 908 909
f 872 909 873
f 873 909 910
f 873 910 874
f 874 910 911
f 874 911 875
f 875 911 912
f 875 912 876
f 876 912 913
f 876 913 877
f 877 913 914
f 877 914 878
f 878 914 915
f 878 915 879
f 879 915 916
f 879 916 880
f 880 916 917
f 880 917 881
f 881 917 918
f 881 918 882
f 882 918 919
f 882 919 883
f 883 919 920
f 883 920 884
f 884 920 921
f 884 921 885
f 885 921 922
f 885 922 886
f 886 922 923
f 886 923 887
f 887 923 924
f 887 924 888
f 888 924 925
f 888 925 889
f 889 925 926
f 889 926 890
f 890 926 927
f 890 927 891
f 891 927 928
f 891 928 892
f 892 928 929
f 892 929 893
f 893 929 930
f 893 930 894
f 894 930 931
f 894 931 895
f 895 931 932
f 895 932 896
f 896 932 933
f 896 933 897
f 897 933 934
f 897 934 898
f 898 934 935
f 898 935 899
f 899 935 936
f 899 936 900
f 900 936 937
f 900 937 901
f 901 937 938
f 901 938 902
f 902 938 903
f 902 903 867
f 903 939 940
f 903 940 904
f 904 940 941
f 904 941 905
f 905 941 942
f 905 942 906
f 906 942 943
f 906 943 907
f 907 943 944
f 907 944 908
f 908 944 945
f 908 945 909
f 909 945 946
f 909 946 910
f 910 946 947
f 910 947 911
f 911 947 948
f 911 948 912
f 912 948 949
f 912 949 913
f 913 949 950
f 913 950 914
f 914 950 951
f 914 951 915
f 915 951 952
f 915 952 916
f 916 952 953
f 916 953 917
f 917 953 954
f 917 954 918
f 918 954 955
f 918 955 919
f 919 955 956
f 919 956 920
f 920 956 957
f 920 957 921
f 921 957 958
f 921 958 922
f 922 958 959
f 922 959 923
f 923 959 960
f 923 960 924
f 924 960 961
f 924 961 925
f 925 961 962
f 925 962 926
f 926 962 963
f 926 963 927
f 927 963 964
f 927 964 928
f 928 964 965
f 928 965 929
f 929 965 966
f 929 966 930
f 930 966 967
f 930 967 931
f 931 967 968
f 931 968 932
f 932 968 969
f 932 969 933
f 933 969 970
f 933 970 934
f 934 970 971
f 934 971 935
f 935 971 972
f 935 972 936
f 936 972 973
f 936 973 937
f 937 973 974
f 937 974 938
f 938 974 939
f 938 939 903
f 939 975 976
f 939 976 940
f 940 976 977
f 940 977 941
f 941 977 978
f 941 978 942
f 942 978 979
f 942 979 943
f 943 979 980
f 943 980 944
f 944 980 981
f 944 981 945
f 945 981 982
f 945 982 946
f 946 982 983
f 946 983 947
f 947 983 984
f 947 984 948
f 948 984 985
f 948 985 949
f 949 985 986
f 949 986 950
f 950 986 987
f 950 987 951
f 951 987 988
f 951 988 952
f 952 988 989
f 952 989 953
f 953 989 990
f 953 990 954
f 954 990 991
f 954 991 955
f 955 991 992
f 955 992 956
f 956 992 993
f 956 993 957
f 957 993 994
f 957 994 958
f 958 994 995
f 958 995 959
f 959 995 996
f 959 996 960
f 960 996 997
f 960 997 961
f 961 997 998
f 961 998 962
f 962 998 999
f 962 999 963
f 963 999 1000
f 963 1000 964
f 964 1000 1001
f 964 1001 965
f 965 1001 1002
f 965 1002 966
f 966 1002 1003
f 966 1003 967
f 967 1003 1004
f 967 1004 968
f 968 1004 1005
f 968 1005 969
f 969 1005 1006
f 969 1006 970
f 970 1006 1007
f 970 1007 971
f 971 1007 1008
f 971 1008 972
f 972 1008 1009
f 972 1009 973
f 973 1009 1010
f 973 1010 974
f 974 1010 975
f 974 975 939
f 975 1011 1012
f 975 1012 976
f 976 1012 1013
f 976 1013 977
f 977 1013 1014
f 977 1014 978
f 978 1014 1015
f 978 1015 979
f 979 1015 1016
f 979 1016 980
f 980 1016 1017
f 980 1017 981
f 981 1017 1018
f 981 1018 982
f 982 1018 1019
f 982 1019 983
f 983 1019 1020
f 983 1020 984
f 984 1020 1021
f 984 1021 985
f 985 1021 1022
f 985 1022 986
f 986 1022 1023
f 986 1023 987
f 987 1023 1024
f 987 1024 988
f 988 1024 1025
f 988 1025 989
f 989 1025 1026
f 989 1026 990
f 990 1026 1027
f 990 1027 991
f 991 1027 1028
f 991 1028 992
f 992 1028 1029
f 992 1029 993
f 993 1029 1030
f 993 1030 994
f 994 1030 1031
f 994 1031 995
f 995 1031 1032
f 995 1032 996
f 996 1032 1033
f 996 1033 997
f 997 1033 1034
f 997 1034 998
f 998 1034 1035
f 998 1035 999
f 999 1035 1036
f 999 1036 1000
f 1000 1036 1037
f 1000 1037 1001
f 1001 1037 1038
f 1001 1038 1002
f 1002 1038 1039
f 1002 1039 1003
f 1003 1039 1040
f 1003 1040 1004
f 1004 1040 1041
f 1004 1041 1005
f 1005 1041 1042
f 1005 1042 1006
f 1006 1042 1043
f 1006 1043 1007
f 1007 1043 1044
f 1007 1044 1008
f 1008 1044 1045
f 1008 1045 1009
f 1009 1045 1046
f 1009 1046 1010
f 1010 1046 1011
f 1010 1011 975
f 1011 1047 1048
f 1011 1048 1012
f 1012 1048 1049
f 1012 1049 1013
f 1013 1049 1050
f 1013 1050 1014
f 1014 1050 1051
f 1014 1051 1015
f 1015 1051 1052
f 1015 1052 1016
f 1016 1052 1053
f 1016 1053 1017
f 1017 1053 1054
f 1017 1054 1018
f 1018 1054 1055
f 1018 1055 1019
f 1019 1055 1056
f 1019 1056 1020
f 1020 1056 1057
f 1020 1057 1021
f 1021 1057 1058
f 1021 1058 1022
f 1022 1058 1059
f 1022 1059 1023
f 1023 1059 1060
f 1023 1060 1024
f 1024 1060 1061
f 1024 1061 1025
f 1025 1061 1062
f 1025 1062 1026
f 1026 1062 1063
f 1026 1063 1027
f 1027 1063 1064
f 1027 1064 1028
f 1028 1064 1065
f 1028 1065 1029
f 1029 1065 1066
f 1029 1066 1030
f 1030 1066 1067
f 1030 1067 1031
f 1031 1067 1068
f 1031 1068 1032
f 1032 1068 1069
f 1032 1069 1033
f 1033 1069 1070
f 1033 1070 1034
f 1034 1070 1071
f 1034 1071 1035
f 1035 1071 1072
f 1035 1072 1036
f 1036 1072 1073
f 1036 1073 1037
f 1037 1073 1074
f 1037 1074 1038
f 1038 1074 1075
f 1038 1075 1039
f 1039 1075 1076
f 1039 1076 1040
f 1040 1076 1077
f 1040 1077 1041
f 1041 1077 1078
f 1041 1078 1042
f 1042 1078 1079
f 1042 1079 1043
f 1043 1079 1080
f 1043 1080 1044
f 1044 1080 1081
f 1044 1081 1045
f 1045 1081 1082
f 1045 1082 1046
f 1046 1082 1047
f 1046 1047 1011
f 1083 832 831
f 1084 1047 1048
f 1083 833 832
f 1084 1048 1049
f 1083 834 833
f 1084 1049 1050
f 1083 835 834
f 1084 1050 1051
f 1083 836 835
f 1084 1051 1052
f 1083 837 836
f 1084 1052 1053
f 1083 838 837
f 1084 1053 1054
f 1083 839 838
f 1084 1054 1055
f 1083 840 839
f 1084 1055 1056
f 1083 841 840
f 1084 1056 1057
f 1083 842 841
f 1084 1057 1058
f 1083 843 842
f 1084 1058 1059
f 1083 844 843
f 1084 1059 1060
f 1083 845 844
f 1084 1060 1061
f 1083 846 845
f 1084 1061 1062
f 1083 847 846
f 1084 1062 1063
f 1083 848 847
f 1084 1063 1064
f 1083 849 848
f 1084 1064 1065
f 1083 850 849
f 1084 1065 1066
f 1083 851 850
f 1084 1066 1067
f 1083 852 851
f 1084 1067 1068
f 1083 853 852
f 1084 1068 1069
f 1083 854 853
f 1084 1069 1070
f 1083 855 854
f 1084 1070 1071
f 1083 856 855
f 1084 1071 1072
f 1083 857 856
f 1084 1072 1073
f 1083 858 857
f 1084 1073 1074
f 1083 859 858
f 1084 1074 1075
f 1083 860 859
f 1084 1075 1076
f 1083 861 860
f 1084 1076 1077
f 1083 862 861
f 1084 1077 1078
f 1083 863 862
f 1084 1078 1079
f 1083 864 863
f 1084 1079 1080
f 1083 865 864
f 1084 1080 1081
f 1083 866 865
f 1084 1081 1082
f 1083 831 866
f 1084 1082 1047
f 1085 1087 1086
f 1085 1088 1087
f 1089 1090 1091
f 1089 1091 1092
f 1085 1089 1092
f 1085 1092 1088
f 1086 1087 1091
f 1086 1091 1090
f 1088 1092 1091
f 1088 1091 1087
f 1085 1086 1090
f 1085 1090 1089
f 1093 1113 1114
f 1093 1114 1094
f 1094 1114 1115
f 1094 1115 1095
f 1095 1115 1116
f 1095 1116 1096
f 1096 1116 1117
f 1096 1117 1097
f 1097 1117 1118
f 1097 1118 1098
f 1098 1118 1119
f 1098 1119 1099
f 1099 1119 1120
f 1099 1120 1100
f 1100 1120 1121
f 1100 1121 1101
f 1101 1121 1122
f 1101 1122 1102
f 1102 1122 1123
f 1102 1123 1103
f 1103 1123 1124
f 1103 1124 1104
f 1104 1124 1125
f 1104 1125 1105
f 1105 1125 1126
f 1105 1126 1106
f 1106 1126 1127
f 1106 1127 1107
f 1107 1127 1128
f 1107 1128 1108
f 1108 1128 1129
f 1108 1129 1109
f 1109 1129 1130
f 1109 1130 1110
f 1110 1130 1131
f 1110 1131 1111
f 1111 1131 1132
f 1111 1132 1112
f 1112 1132 1113
f 1112 1113 1093
f 1113 1133 1134
f 1113 1134 1114
f 1114 1134 1135
f 1114 1135 1115
f 1115 1135 1136
f 1115 1136 1116
f 1116 1136 1137
f 1116 1137 1117
f 1117 1137 1138
f 1117 1138 1118
f 1118 1138 1139
f 1118 1139 1119
f 1119 1139 1140
f 1119 1140 1120
f 1120 1140 1141
f 1120 1141 1121
f 1121 1141 1142
f 1121 1142 1122
f 1122 1142 1143
f 1122 1143 1123
f 1123 1143 1144
f 1123 1144 1124
f 1124 1144 1145
f 1124 1145 1125
f 1125 1145 1146
f 1125 1146 1126
f 1126 1146 1147
f 1126 1147 1127
f 1127 1147 1148
f 1127 1148 1128
f 1128 1148 1149
f 1128 1149 1129
f 1129 1149 1150
f 1129 1150 1130
f 1130 1150 1151
f 1130 1151 1131
f 1131 1151 1152
f 1131 1152 1132
f 1132 1152 1133
f 1132 1133 1113
f 1133 1153 1154
f 1133 1154 1134
f 1134 1154 1155
f 1134 1155 1135
f 1135 1155 1156
f 1135 1156 1136
f 1136 1156 1157
f 1136 1157 1137
f 1137 1157 1158
f 1137 1158 1138
f 1138 1158 1159
f 1138 1159 1139
f 1139 1159 1160
f 1139 1160 1140
f 1140 1160 1161
f 1140 1161 1141
f 1141 1161 1162
f 1141 1162 1142
f 1142 1162 1163
f 1142 1163 1143
f 1143 1163 1164
f 1143 1164 1144
f 1144 1164 1165
f 1144 1165 1145
f 1145 1165 1166
f 1145 1166 1146
f 1146 1166 1167
f 1146 1167 1147
f 1147 1167 1168
f 1147 1168 1148
f 1148 1168 1169
f 1148 1169 1149
f 1149 1169 1170
f 1149 1170 1150
f 1150 1170 1171
f 1150 1171 1151
f 1151 1171 1172
f 1151 1172 1152
f 1152 1172 1153
f 1152 1153 1133
f 1173 1094 1093
f 1174 1153 1154
f 1173 1095 1094
f 1174 1154 1155
f 1173 1096 1095
f 1174 1155 1156
f 1173 1097 1096
f 1174 1156 1157
f 1173 1098 1097
f 1174 1157 1158
f 1173 1099 1098
f 1174 1158 1159
f 1173 1100 1099
f 1174 1159 1160
f 1173 1101 1100
f 1174 1160 1161
f 1173 1102 1101
f 1174 1161 1162
f 1173 1103 1102
f 1174 1162 1163
f 1173 1104 1103
f 1174 1163 1164
f 1173 1105 1104
f 1174 1164 1165
f 1173 1106 1105
f 1174 1165 1166
f 1173 1107 1106
f 1174 1166 1167
f 1173 1108 1107
f 1174 1167 1168
f 1173 1109 1108
f 1174 1168 1169
f 1173 1110 1109
f 1174 1169 1170
f 1173 1111 1110
f 1174 1170 1171
f 1173 1112 1111
f 1174 1171 1172
f 1173 1093 1112
f 1174 1172 1153
