# Solar Horizon Hyper-Realistic 3D Asset: ArtemisLanderV2
# Vertices: 1101, Faces: 2038

v 2.900000 0.000000 0.000000
v 2.050610 0.000000 2.050610
v 0.000000 0.000000 2.900000
v -2.050610 0.000000 2.050610
v -2.900000 0.000000 0.000000
v -2.050610 0.000000 -2.050610
v -0.000000 0.000000 -2.900000
v 2.050610 0.000000 -2.050610
v 2.900000 0.600000 0.000000
v 2.050610 0.600000 2.050610
v 0.000000 0.600000 2.900000
v -2.050610 0.600000 2.050610
v -2.900000 0.600000 0.000000
v -2.050610 0.600000 -2.050610
v -0.000000 0.600000 -2.900000
v 2.050610 0.600000 -2.050610
v 2.900000 1.200000 0.000000
v 2.050610 1.200000 2.050610
v 0.000000 1.200000 2.900000
v -2.050610 1.200000 2.050610
v -2.900000 1.200000 0.000000
v -2.050610 1.200000 -2.050610
v -0.000000 1.200000 -2.900000
v 2.050610 1.200000 -2.050610
v 2.900000 1.800000 0.000000
v 2.050610 1.800000 2.050610
v 0.000000 1.800000 2.900000
v -2.050610 1.800000 2.050610
v -2.900000 1.800000 0.000000
v -2.050610 1.800000 -2.050610
v -0.000000 1.800000 -2.900000
v 2.050610 1.800000 -2.050610
v 2.900000 2.400000 0.000000
v 2.050610 2.400000 2.050610
v 0.000000 2.400000 2.900000
v -2.050610 2.400000 2.050610
v -2.900000 2.400000 0.000000
v -2.050610 2.400000 -2.050610
v -0.000000 2.400000 -2.900000
v 2.050610 2.400000 -2.050610
v 0.000000 0.000000 0.000000
v 0.000000 2.400000 0.000000
v 2.021306 -1.400000 1.841306
v 1.986929 -1.400000 1.947107
v 1.896929 -1.400000 2.012496
v 1.785683 -1.400000 2.012496
v 1.695683 -1.400000 1.947107
v 1.661306 -1.400000 1.841306
v 1.695683 -1.400000 1.735505
v 1.785683 -1.400000 1.670116
v 1.896929 -1.400000 1.670116
v 1.986929 -1.400000 1.735505
v 2.021306 -0.133333 1.841306
v 1.986929 -0.133333 1.947107
v 1.896929 -0.133333 2.012496
v 1.785683 -0.133333 2.012496
v 1.695683 -0.133333 1.947107
v 1.661306 -0.133333 1.841306
v 1.695683 -0.133333 1.735505
v 1.785683 -0.133333 1.670116
v 1.896929 -0.133333 1.670116
v 1.986929 -0.133333 1.735505
v 2.021306 1.133333 1.841306
v 1.986929 1.133333 1.947107
v 1.896929 1.133333 2.012496
v 1.785683 1.133333 2.012496
v 1.695683 1.133333 1.947107
v 1.661306 1.133333 1.841306
v 1.695683 1.133333 1.735505
v 1.785683 1.133333 1.670116
v 1.896929 1.133333 1.670116
v 1.986929 1.133333 1.735505
v 2.021306 2.400000 1.841306
v 1.986929 2.400000 1.947107
v 1.896929 2.400000 2.012496
v 1.785683 2.400000 2.012496
v 1.695683 2.400000 1.947107
v 1.661306 2.400000 1.841306
v 1.695683 2.400000 1.735505
v 1.785683 2.400000 1.670116
v 1.896929 2.400000 1.670116
v 1.986929 2.400000 1.735505
v 1.841306 -1.400000 1.841306
v 1.841306 2.400000 1.841306
v -0.412061 0.920000 1.187939
v -0.412061 0.884853 1.272792
v -0.412061 0.800000 1.307939
v -0.412061 0.715147 1.272792
v -0.412061 0.680000 1.187939
v -0.412061 0.715147 1.103087
v -0.412061 0.800000 1.067939
v -0.412061 0.884853 1.103087
v 1.187939 0.920000 1.187939
v 1.187939 0.884853 1.272792
v 1.187939 0.800000 1.307939
v 1.187939 0.715147 1.272792
v 1.187939 0.680000 1.187939
v 1.187939 0.715147 1.103087
v 1.187939 0.800000 1.067939
v 1.187939 0.884853 1.103087
v 2.787939 0.920000 1.187939
v 2.787939 0.884853 1.272792
v 2.787939 0.800000 1.307939
v 2.787939 0.715147 1.272792
v 2.787939 0.680000 1.187939
v 2.787939 0.715147 1.103087
v 2.787939 0.800000 1.067939
v 2.787939 0.884853 1.103087
v -0.412061 0.800000 1.187939
v 2.787939 0.800000 1.187939
v 3.819848 -0.740000 2.969848
v 3.755146 -0.740000 3.295129
v 3.570889 -0.740000 3.570889
v 3.295129 -0.740000 3.755146
v 2.969848 -0.740000 3.819848
v 2.644568 -0.740000 3.755146
v 2.368808 -0.740000 3.570889
v 2.184551 -0.740000 3.295129
v 2.119848 -0.740000 2.969848
v 2.184551 -0.740000 2.644568
v 2.368808 -0.740000 2.368808
v 2.644568 -0.740000 2.184551
v 2.969848 -0.740000 2.119848
v 3.295129 -0.740000 2.184551
v 3.570889 -0.740000 2.368808
v 3.755146 -0.740000 2.644568
v 3.819848 -0.650000 2.969848
v 3.755146 -0.650000 3.295129
v 3.570889 -0.650000 3.570889
v 3.295129 -0.650000 3.755146
v 2.969848 -0.650000 3.819848
v 2.644568 -0.650000 3.755146
v 2.368808 -0.650000 3.570889
v 2.184551 -0.650000 3.295129
v 2.119848 -0.650000 2.969848
v 2.184551 -0.650000 2.644568
v 2.368808 -0.650000 2.368808
v 2.644568 -0.650000 2.184551
v 2.969848 -0.650000 2.119848
v 3.295129 -0.650000 2.184551
v 3.570889 -0.650000 2.368808
v 3.755146 -0.650000 2.644568
v 3.819848 -0.560000 2.969848
v 3.755146 -0.560000 3.295129
v 3.570889 -0.560000 3.570889
v 3.295129 -0.560000 3.755146
v 2.969848 -0.560000 3.819848
v 2.644568 -0.560000 3.755146
v 2.368808 -0.560000 3.570889
v 2.184551 -0.560000 3.295129
v 2.119848 -0.560000 2.969848
v 2.184551 -0.560000 2.644568
v 2.368808 -0.560000 2.368808
v 2.644568 -0.560000 2.184551
v 2.969848 -0.560000 2.119848
v 3.295129 -0.560000 2.184551
v 3.570889 -0.560000 2.368808
v 3.755146 -0.560000 2.644568
v 2.969848 -0.740000 2.969848
v 2.969848 -0.560000 2.969848
v 2.999848 -1.850000 2.969848
v 2.984848 -1.850000 2.995829
v 2.954848 -1.850000 2.995829
v 2.939848 -1.850000 2.969848
v 2.954848 -1.850000 2.943868
v 2.984848 -1.850000 2.943868
v 2.999848 -0.650000 2.969848
v 2.984848 -0.650000 2.995829
v 2.954848 -0.650000 2.995829
v 2.939848 -0.650000 2.969848
v 2.954848 -0.650000 2.943868
v 2.984848 -0.650000 2.943868
v 2.969848 -1.850000 2.969848
v 2.969848 -0.650000 2.969848
v -1.661306 -1.400000 1.841306
v -1.695683 -1.400000 1.947107
v -1.785683 -1.400000 2.012496
v -1.896929 -1.400000 2.012496
v -1.986929 -1.400000 1.947107
v -2.021306 -1.400000 1.841306
v -1.986929 -1.400000 1.735505
v -1.896929 -1.400000 1.670116
v -1.785683 -1.400000 1.670116
v -1.695683 -1.400000 1.735505
v -1.661306 -0.133333 1.841306
v -1.695683 -0.133333 1.947107
v -1.785683 -0.133333 2.012496
v -1.896929 -0.133333 2.012496
v -1.986929 -0.133333 1.947107
v -2.021306 -0.133333 1.841306
v -1.986929 -0.133333 1.735505
v -1.896929 -0.133333 1.670116
v -1.785683 -0.133333 1.670116
v -1.695683 -0.133333 1.735505
v -1.661306 1.133333 1.841306
v -1.695683 1.133333 1.947107
v -1.785683 1.133333 2.012496
v -1.896929 1.133333 2.012496
v -1.986929 1.133333 1.947107
v -2.021306 1.133333 1.841306
v -1.986929 1.133333 1.735505
v -1.896929 1.133333 1.670116
v -1.785683 1.133333 1.670116
v -1.695683 1.133333 1.735505
v -1.661306 2.400000 1.841306
v -1.695683 2.400000 1.947107
v -1.785683 2.400000 2.012496
v -1.896929 2.400000 2.012496
v -1.986929 2.400000 1.947107
v -2.021306 2.400000 1.841306
v -1.986929 2.400000 1.735505
v -1.896929 2.400000 1.670116
v -1.785683 2.400000 1.670116
v -1.695683 2.400000 1.735505
v -1.841306 -1.400000 1.841306
v -1.841306 2.400000 1.841306
v -2.787939 0.920000 1.187939
v -2.787939 0.884853 1.272792
v -2.787939 0.800000 1.307939
v -2.787939 0.715147 1.272792
v -2.787939 0.680000 1.187939
v -2.787939 0.715147 1.103087
v -2.787939 0.800000 1.067939
v -2.787939 0.884853 1.103087
v -1.187939 0.920000 1.187939
v -1.187939 0.884853 1.272792
v -1.187939 0.800000 1.307939
v -1.187939 0.715147 1.272792
v -1.187939 0.680000 1.187939
v -1.187939 0.715147 1.103087
v -1.187939 0.800000 1.067939
v -1.187939 0.884853 1.103087
v 0.412061 0.920000 1.187939
v 0.412061 0.884853 1.272792
v 0.412061 0.800000 1.307939
v 0.412061 0.715147 1.272792
v 0.412061 0.680000 1.187939
v 0.412061 0.715147 1.103087
v 0.412061 0.800000 1.067939
v 0.412061 0.884853 1.103087
v -2.787939 0.800000 1.187939
v 0.412061 0.800000 1.187939
v -2.119848 -0.740000 2.969848
v -2.184551 -0.740000 3.295129
v -2.368808 -0.740000 3.570889
v -2.644568 -0.740000 3.755146
v -2.969848 -0.740000 3.819848
v -3.295129 -0.740000 3.755146
v -3.570889 -0.740000 3.570889
v -3.755146 -0.740000 3.295129
v -3.819848 -0.740000 2.969848
v -3.755146 -0.740000 2.644568
v -3.570889 -0.740000 2.368808
v -3.295129 -0.740000 2.184551
v -2.969848 -0.740000 2.119848
v -2.644568 -0.740000 2.184551
v -2.368808 -0.740000 2.368808
v -2.184551 -0.740000 2.644568
v -2.119848 -0.650000 2.969848
v -2.184551 -0.650000 3.295129
v -2.368808 -0.650000 3.570889
v -2.644568 -0.650000 3.755146
v -2.969848 -0.650000 3.819848
v -3.295129 -0.650000 3.755146
v -3.570889 -0.650000 3.570889
v -3.755146 -0.650000 3.295129
v -3.819848 -0.650000 2.969848
v -3.755146 -0.650000 2.644568
v -3.570889 -0.650000 2.368808
v -3.295129 -0.650000 2.184551
v -2.969848 -0.650000 2.119848
v -2.644568 -0.650000 2.184551
v -2.368808 -0.650000 2.368808
v -2.184551 -0.650000 2.644568
v -2.119848 -0.560000 2.969848
v -2.184551 -0.560000 3.295129
v -2.368808 -0.560000 3.570889
v -2.644568 -0.560000 3.755146
v -2.969848 -0.560000 3.819848
v -3.295129 -0.560000 3.755146
v -3.570889 -0.560000 3.570889
v -3.755146 -0.560000 3.295129
v -3.819848 -0.560000 2.969848
v -3.755146 -0.560000 2.644568
v -3.570889 -0.560000 2.368808
v -3.295129 -0.560000 2.184551
v -2.969848 -0.560000 2.119848
v -2.644568 -0.560000 2.184551
v -2.368808 -0.560000 2.368808
v -2.184551 -0.560000 2.644568
v -2.969848 -0.740000 2.969848
v -2.969848 -0.560000 2.969848
v -2.939848 -1.850000 2.969848
v -2.954848 -1.850000 2.995829
v -2.984848 -1.850000 2.995829
v -2.999848 -1.850000 2.969848
v -2.984848 -1.850000 2.943868
v -2.954848 -1.850000 2.943868
v -2.939848 -0.650000 2.969848
v -2.954848 -0.650000 2.995829
v -2.984848 -0.650000 2.995829
v -2.999848 -0.650000 2.969848
v -2.984848 -0.650000 2.943868
v -2.954848 -0.650000 2.943868
v -2.969848 -1.850000 2.969848
v -2.969848 -0.650000 2.969848
v -1.661306 -1.400000 -1.841306
v -1.695683 -1.400000 -1.735505
v -1.785683 -1.400000 -1.670116
v -1.896929 -1.400000 -1.670116
v -1.986929 -1.400000 -1.735505
v -2.021306 -1.400000 -1.841306
v -1.986929 -1.400000 -1.947107
v -1.896929 -1.400000 -2.012496
v -1.785683 -1.400000 -2.012496
v -1.695683 -1.400000 -1.947107
v -1.661306 -0.133333 -1.841306
v -1.695683 -0.133333 -1.735505
v -1.785683 -0.133333 -1.670116
v -1.896929 -0.133333 -1.670116
v -1.986929 -0.133333 -1.735505
v -2.021306 -0.133333 -1.841306
v -1.986929 -0.133333 -1.947107
v -1.896929 -0.133333 -2.012496
v -1.785683 -0.133333 -2.012496
v -1.695683 -0.133333 -1.947107
v -1.661306 1.133333 -1.841306
v -1.695683 1.133333 -1.735505
v -1.785683 1.133333 -1.670116
v -1.896929 1.133333 -1.670116
v -1.986929 1.133333 -1.735505
v -2.021306 1.133333 -1.841306
v -1.986929 1.133333 -1.947107
v -1.896929 1.133333 -2.012496
v -1.785683 1.133333 -2.012496
v -1.695683 1.133333 -1.947107
v -1.661306 2.400000 -1.841306
v -1.695683 2.400000 -1.735505
v -1.785683 2.400000 -1.670116
v -1.896929 2.400000 -1.670116
v -1.986929 2.400000 -1.735505
v -2.021306 2.400000 -1.841306
v -1.986929 2.400000 -1.947107
v -1.896929 2.400000 -2.012496
v -1.785683 2.400000 -2.012496
v -1.695683 2.400000 -1.947107
v -1.841306 -1.400000 -1.841306
v -1.841306 2.400000 -1.841306
v -2.787939 0.920000 -1.187939
v -2.787939 0.884853 -1.103087
v -2.787939 0.800000 -1.067939
v -2.787939 0.715147 -1.103087
v -2.787939 0.680000 -1.187939
v -2.787939 0.715147 -1.272792
v -2.787939 0.800000 -1.307939
v -2.787939 0.884853 -1.272792
v -1.187939 0.920000 -1.187939
v -1.187939 0.884853 -1.103087
v -1.187939 0.800000 -1.067939
v -1.187939 0.715147 -1.103087
v -1.187939 0.680000 -1.187939
v -1.187939 0.715147 -1.272792
v -1.187939 0.800000 -1.307939
v -1.187939 0.884853 -1.272792
v 0.412061 0.920000 -1.187939
v 0.412061 0.884853 -1.103087
v 0.412061 0.800000 -1.067939
v 0.412061 0.715147 -1.103087
v 0.412061 0.680000 -1.187939
v 0.412061 0.715147 -1.272792
v 0.412061 0.800000 -1.307939
v 0.412061 0.884853 -1.272792
v -2.787939 0.800000 -1.187939
v 0.412061 0.800000 -1.187939
v -2.119848 -0.740000 -2.969848
v -2.184551 -0.740000 -2.644568
v -2.368808 -0.740000 -2.368808
v -2.644568 -0.740000 -2.184551
v -2.969848 -0.740000 -2.119848
v -3.295129 -0.740000 -2.184551
v -3.570889 -0.740000 -2.368808
v -3.755146 -0.740000 -2.644568
v -3.819848 -0.740000 -2.969848
v -3.755146 -0.740000 -3.295129
v -3.570889 -0.740000 -3.570889
v -3.295129 -0.740000 -3.755146
v -2.969848 -0.740000 -3.819848
v -2.644568 -0.740000 -3.755146
v -2.368808 -0.740000 -3.570889
v -2.184551 -0.740000 -3.295129
v -2.119848 -0.650000 -2.969848
v -2.184551 -0.650000 -2.644568
v -2.368808 -0.650000 -2.368808
v -2.644568 -0.650000 -2.184551
v -2.969848 -0.650000 -2.119848
v -3.295129 -0.650000 -2.184551
v -3.570889 -0.650000 -2.368808
v -3.755146 -0.650000 -2.644568
v -3.819848 -0.650000 -2.969848
v -3.755146 -0.650000 -3.295129
v -3.570889 -0.650000 -3.570889
v -3.295129 -0.650000 -3.755146
v -2.969848 -0.650000 -3.819848
v -2.644568 -0.650000 -3.755146
v -2.368808 -0.650000 -3.570889
v -2.184551 -0.650000 -3.295129
v -2.119848 -0.560000 -2.969848
v -2.184551 -0.560000 -2.644568
v -2.368808 -0.560000 -2.368808
v -2.644568 -0.560000 -2.184551
v -2.969848 -0.560000 -2.119848
v -3.295129 -0.560000 -2.184551
v -3.570889 -0.560000 -2.368808
v -3.755146 -0.560000 -2.644568
v -3.819848 -0.560000 -2.969848
v -3.755146 -0.560000 -3.295129
v -3.570889 -0.560000 -3.570889
v -3.295129 -0.560000 -3.755146
v -2.969848 -0.560000 -3.819848
v -2.644568 -0.560000 -3.755146
v -2.368808 -0.560000 -3.570889
v -2.184551 -0.560000 -3.295129
v -2.969848 -0.740000 -2.969848
v -2.969848 -0.560000 -2.969848
v -2.939848 -1.850000 -2.969848
v -2.954848 -1.850000 -2.943868
v -2.984848 -1.850000 -2.943868
v -2.999848 -1.850000 -2.969848
v -2.984848 -1.850000 -2.995829
v -2.954848 -1.850000 -2.995829
v -2.939848 -0.650000 -2.969848
v -2.954848 -0.650000 -2.943868
v -2.984848 -0.650000 -2.943868
v -2.999848 -0.650000 -2.969848
v -2.984848 -0.650000 -2.995829
v -2.954848 -0.650000 -2.995829
v -2.969848 -1.850000 -2.969848
v -2.969848 -0.650000 -2.969848
v 2.021306 -1.400000 -1.841306
v 1.986929 -1.400000 -1.735505
v 1.896929 -1.400000 -1.670116
v 1.785683 -1.400000 -1.670116
v 1.695683 -1.400000 -1.735505
v 1.661306 -1.400000 -1.841306
v 1.695683 -1.400000 -1.947107
v 1.785683 -1.400000 -2.012496
v 1.896929 -1.400000 -2.012496
v 1.986929 -1.400000 -1.947107
v 2.021306 -0.133333 -1.841306
v 1.986929 -0.133333 -1.735505
v 1.896929 -0.133333 -1.670116
v 1.785683 -0.133333 -1.670116
v 1.695683 -0.133333 -1.735505
v 1.661306 -0.133333 -1.841306
v 1.695683 -0.133333 -1.947107
v 1.785683 -0.133333 -2.012496
v 1.896929 -0.133333 -2.012496
v 1.986929 -0.133333 -1.947107
v 2.021306 1.133333 -1.841306
v 1.986929 1.133333 -1.735505
v 1.896929 1.133333 -1.670116
v 1.785683 1.133333 -1.670116
v 1.695683 1.133333 -1.735505
v 1.661306 1.133333 -1.841306
v 1.695683 1.133333 -1.947107
v 1.785683 1.133333 -2.012496
v 1.896929 1.133333 -2.012496
v 1.986929 1.133333 -1.947107
v 2.021306 2.400000 -1.841306
v 1.986929 2.400000 -1.735505
v 1.896929 2.400000 -1.670116
v 1.785683 2.400000 -1.670116
v 1.695683 2.400000 -1.735505
v 1.661306 2.400000 -1.841306
v 1.695683 2.400000 -1.947107
v 1.785683 2.400000 -2.012496
v 1.896929 2.400000 -2.012496
v 1.986929 2.400000 -1.947107
v 1.841306 -1.400000 -1.841306
v 1.841306 2.400000 -1.841306
v -0.412061 0.920000 -1.187939
v -0.412061 0.884853 -1.103087
v -0.412061 0.800000 -1.067939
v -0.412061 0.715147 -1.103087
v -0.412061 0.680000 -1.187939
v -0.412061 0.715147 -1.272792
v -0.412061 0.800000 -1.307939
v -0.412061 0.884853 -1.272792
v 1.187939 0.920000 -1.187939
v 1.187939 0.884853 -1.103087
v 1.187939 0.800000 -1.067939
v 1.187939 0.715147 -1.103087
v 1.187939 0.680000 -1.187939
v 1.187939 0.715147 -1.272792
v 1.187939 0.800000 -1.307939
v 1.187939 0.884853 -1.272792
v 2.787939 0.920000 -1.187939
v 2.787939 0.884853 -1.103087
v 2.787939 0.800000 -1.067939
v 2.787939 0.715147 -1.103087
v 2.787939 0.680000 -1.187939
v 2.787939 0.715147 -1.272792
v 2.787939 0.800000 -1.307939
v 2.787939 0.884853 -1.272792
v -0.412061 0.800000 -1.187939
v 2.787939 0.800000 -1.187939
v 3.819848 -0.740000 -2.969848
v 3.755146 -0.740000 -2.644568
v 3.570889 -0.740000 -2.368808
v 3.295129 -0.740000 -2.184551
v 2.969848 -0.740000 -2.119848
v 2.644568 -0.740000 -2.184551
v 2.368808 -0.740000 -2.368808
v 2.184551 -0.740000 -2.644568
v 2.119848 -0.740000 -2.969848
v 2.184551 -0.740000 -3.295129
v 2.368808 -0.740000 -3.570889
v 2.644568 -0.740000 -3.755146
v 2.969848 -0.740000 -3.819848
v 3.295129 -0.740000 -3.755146
v 3.570889 -0.740000 -3.570889
v 3.755146 -0.740000 -3.295129
v 3.819848 -0.650000 -2.969848
v 3.755146 -0.650000 -2.644568
v 3.570889 -0.650000 -2.368808
v 3.295129 -0.650000 -2.184551
v 2.969848 -0.650000 -2.119848
v 2.644568 -0.650000 -2.184551
v 2.368808 -0.650000 -2.368808
v 2.184551 -0.650000 -2.644568
v 2.119848 -0.650000 -2.969848
v 2.184551 -0.650000 -3.295129
v 2.368808 -0.650000 -3.570889
v 2.644568 -0.650000 -3.755146
v 2.969848 -0.650000 -3.819848
v 3.295129 -0.650000 -3.755146
v 3.570889 -0.650000 -3.570889
v 3.755146 -0.650000 -3.295129
v 3.819848 -0.560000 -2.969848
v 3.755146 -0.560000 -2.644568
v 3.570889 -0.560000 -2.368808
v 3.295129 -0.560000 -2.184551
v 2.969848 -0.560000 -2.119848
v 2.644568 -0.560000 -2.184551
v 2.368808 -0.560000 -2.368808
v 2.184551 -0.560000 -2.644568
v 2.119848 -0.560000 -2.969848
v 2.184551 -0.560000 -3.295129
v 2.368808 -0.560000 -3.570889
v 2.644568 -0.560000 -3.755146
v 2.969848 -0.560000 -3.819848
v 3.295129 -0.560000 -3.755146
v 3.570889 -0.560000 -3.570889
v 3.755146 -0.560000 -3.295129
v 2.969848 -0.740000 -2.969848
v 2.969848 -0.560000 -2.969848
v 2.999848 -1.850000 -2.969848
v 2.984848 -1.850000 -2.943868
v 2.954848 -1.850000 -2.943868
v 2.939848 -1.850000 -2.969848
v 2.954848 -1.850000 -2.995829
v 2.984848 -1.850000 -2.995829
v 2.999848 -0.650000 -2.969848
v 2.984848 -0.650000 -2.943868
v 2.954848 -0.650000 -2.943868
v 2.939848 -0.650000 -2.969848
v 2.954848 -0.650000 -2.995829
v 2.984848 -0.650000 -2.995829
v 2.969848 -1.850000 -2.969848
v 2.969848 -0.650000 -2.969848
v 1.050000 -1.000000 0.000000
v 1.014222 -1.000000 0.271760
v 0.909327 -1.000000 0.525000
v 0.742462 -1.000000 0.742462
v 0.525000 -1.000000 0.909327
v 0.271760 -1.000000 1.014222
v 0.000000 -1.000000 1.050000
v -0.271760 -1.000000 1.014222
v -0.525000 -1.000000 0.909327
v -0.742462 -1.000000 0.742462
v -0.909327 -1.000000 0.525000
v -1.014222 -1.000000 0.271760
v -1.050000 -1.000000 0.000000
v -1.014222 -1.000000 -0.271760
v -0.909327 -1.000000 -0.525000
v -0.742462 -1.000000 -0.742462
v -0.525000 -1.000000 -0.909327
v -0.271760 -1.000000 -1.014222
v -0.000000 -1.000000 -1.050000
v 0.271760 -1.000000 -1.014222
v 0.525000 -1.000000 -0.909327
v 0.742462 -1.000000 -0.742462
v 0.909327 -1.000000 -0.525000
v 1.014222 -1.000000 -0.271760
v 1.050000 -0.650000 0.000000
v 1.014222 -0.650000 0.271760
v 0.909327 -0.650000 0.525000
v 0.742462 -0.650000 0.742462
v 0.525000 -0.650000 0.909327
v 0.271760 -0.650000 1.014222
v 0.000000 -0.650000 1.050000
v -0.271760 -0.650000 1.014222
v -0.525000 -0.650000 0.909327
v -0.742462 -0.650000 0.742462
v -0.909327 -0.650000 0.525000
v -1.014222 -0.650000 0.271760
v -1.050000 -0.650000 0.000000
v -1.014222 -0.650000 -0.271760
v -0.909327 -0.650000 -0.525000
v -0.742462 -0.650000 -0.742462
v -0.525000 -0.650000 -0.909327
v -0.271760 -0.650000 -1.014222
v -0.000000 -0.650000 -1.050000
v 0.271760 -0.650000 -1.014222
v 0.525000 -0.650000 -0.909327
v 0.742462 -0.650000 -0.742462
v 0.909327 -0.650000 -0.525000
v 1.014222 -0.650000 -0.271760
v 1.050000 -0.300000 0.000000
v 1.014222 -0.300000 0.271760
v 0.909327 -0.300000 0.525000
v 0.742462 -0.300000 0.742462
v 0.525000 -0.300000 0.909327
v 0.271760 -0.300000 1.014222
v 0.000000 -0.300000 1.050000
v -0.271760 -0.300000 1.014222
v -0.525000 -0.300000 0.909327
v -0.742462 -0.300000 0.742462
v -0.909327 -0.300000 0.525000
v -1.014222 -0.300000 0.271760
v -1.050000 -0.300000 0.000000
v -1.014222 -0.300000 -0.271760
v -0.909327 -0.300000 -0.525000
v -0.742462 -0.300000 -0.742462
v -0.525000 -0.300000 -0.909327
v -0.271760 -0.300000 -1.014222
v -0.000000 -0.300000 -1.050000
v 0.271760 -0.300000 -1.014222
v 0.525000 -0.300000 -0.909327
v 0.742462 -0.300000 -0.742462
v 0.909327 -0.300000 -0.525000
v 1.014222 -0.300000 -0.271760
v 1.050000 0.050000 0.000000
v 1.014222 0.050000 0.271760
v 0.909327 0.050000 0.525000
v 0.742462 0.050000 0.742462
v 0.525000 0.050000 0.909327
v 0.271760 0.050000 1.014222
v 0.000000 0.050000 1.050000
v -0.271760 0.050000 1.014222
v -0.525000 0.050000 0.909327
v -0.742462 0.050000 0.742462
v -0.909327 0.050000 0.525000
v -1.014222 0.050000 0.271760
v -1.050000 0.050000 0.000000
v -1.014222 0.050000 -0.271760
v -0.909327 0.050000 -0.525000
v -0.742462 0.050000 -0.742462
v -0.525000 0.050000 -0.909327
v -0.271760 0.050000 -1.014222
v -0.000000 0.050000 -1.050000
v 0.271760 0.050000 -1.014222
v 0.525000 0.050000 -0.909327
v 0.742462 0.050000 -0.742462
v 0.909327 0.050000 -0.525000
v 1.014222 0.050000 -0.271760
v 1.050000 0.400000 0.000000
v 1.014222 0.400000 0.271760
v 0.909327 0.400000 0.525000
v 0.742462 0.400000 0.742462
v 0.525000 0.400000 0.909327
v 0.271760 0.400000 1.014222
v 0.000000 0.400000 1.050000
v -0.271760 0.400000 1.014222
v -0.525000 0.400000 0.909327
v -0.742462 0.400000 0.742462
v -0.909327 0.400000 0.525000
v -1.014222 0.400000 0.271760
v -1.050000 0.400000 0.000000
v -1.014222 0.400000 -0.271760
v -0.909327 0.400000 -0.525000
v -0.742462 0.400000 -0.742462
v -0.525000 0.400000 -0.909327
v -0.271760 0.400000 -1.014222
v -0.000000 0.400000 -1.050000
v 0.271760 0.400000 -1.014222
v 0.525000 0.400000 -0.909327
v 0.742462 0.400000 -0.742462
v 0.909327 0.400000 -0.525000
v 1.014222 0.400000 -0.271760
v 0.000000 -1.000000 0.000000
v 0.000000 0.400000 0.000000
v 2.000000 2.200000 0.000000
v 1.931852 2.200000 0.517638
v 1.732051 2.200000 1.000000
v 1.414214 2.200000 1.414214
v 1.000000 2.200000 1.732051
v 0.517638 2.200000 1.931852
v 0.000000 2.200000 2.000000
v -0.517638 2.200000 1.931852
v -1.000000 2.200000 1.732051
v -1.414214 2.200000 1.414214
v -1.732051 2.200000 1.000000
v -1.931852 2.200000 0.517638
v -2.000000 2.200000 0.000000
v -1.931852 2.200000 -0.517638
v -1.732051 2.200000 -1.000000
v -1.414214 2.200000 -1.414214
v -1.000000 2.200000 -1.732051
v -0.517638 2.200000 -1.931852
v -0.000000 2.200000 -2.000000
v 0.517638 2.200000 -1.931852
v 1.000000 2.200000 -1.732051
v 1.414214 2.200000 -1.414214
v 1.732051 2.200000 -1.000000
v 1.931852 2.200000 -0.517638
v 2.000000 2.800000 0.000000
v 1.931852 2.800000 0.517638
v 1.732051 2.800000 1.000000
v 1.414214 2.800000 1.414214
v 1.000000 2.800000 1.732051
v 0.517638 2.800000 1.931852
v 0.000000 2.800000 2.000000
v -0.517638 2.800000 1.931852
v -1.000000 2.800000 1.732051
v -1.414214 2.800000 1.414214
v -1.732051 2.800000 1.000000
v -1.931852 2.800000 0.517638
v -2.000000 2.800000 0.000000
v -1.931852 2.800000 -0.517638
v -1.732051 2.800000 -1.000000
v -1.414214 2.800000 -1.414214
v -1.000000 2.800000 -1.732051
v -0.517638 2.800000 -1.931852
v -0.000000 2.800000 -2.000000
v 0.517638 2.800000 -1.931852
v 1.000000 2.800000 -1.732051
v 1.414214 2.800000 -1.414214
v 1.732051 2.800000 -1.000000
v 1.931852 2.800000 -0.517638
v 2.000000 3.400000 0.000000
v 1.931852 3.400000 0.517638
v 1.732051 3.400000 1.000000
v 1.414214 3.400000 1.414214
v 1.000000 3.400000 1.732051
v 0.517638 3.400000 1.931852
v 0.000000 3.400000 2.000000
v -0.517638 3.400000 1.931852
v -1.000000 3.400000 1.732051
v -1.414214 3.400000 1.414214
v -1.732051 3.400000 1.000000
v -1.931852 3.400000 0.517638
v -2.000000 3.400000 0.000000
v -1.931852 3.400000 -0.517638
v -1.732051 3.400000 -1.000000
v -1.414214 3.400000 -1.414214
v -1.000000 3.400000 -1.732051
v -0.517638 3.400000 -1.931852
v -0.000000 3.400000 -2.000000
v 0.517638 3.400000 -1.931852
v 1.000000 3.400000 -1.732051
v 1.414214 3.400000 -1.414214
v 1.732051 3.400000 -1.000000
v 1.931852 3.400000 -0.517638
v 2.000000 4.000000 0.000000
v 1.931852 4.000000 0.517638
v 1.732051 4.000000 1.000000
v 1.414214 4.000000 1.414214
v 1.000000 4.000000 1.732051
v 0.517638 4.000000 1.931852
v 0.000000 4.000000 2.000000
v -0.517638 4.000000 1.931852
v -1.000000 4.000000 1.732051
v -1.414214 4.000000 1.414214
v -1.732051 4.000000 1.000000
v -1.931852 4.000000 0.517638
v -2.000000 4.000000 0.000000
v -1.931852 4.000000 -0.517638
v -1.732051 4.000000 -1.000000
v -1.414214 4.000000 -1.414214
v -1.000000 4.000000 -1.732051
v -0.517638 4.000000 -1.931852
v -0.000000 4.000000 -2.000000
v 0.517638 4.000000 -1.931852
v 1.000000 4.000000 -1.732051
v 1.414214 4.000000 -1.414214
v 1.732051 4.000000 -1.000000
v 1.931852 4.000000 -0.517638
v 2.000000 4.600000 0.000000
v 1.931852 4.600000 0.517638
v 1.732051 4.600000 1.000000
v 1.414214 4.600000 1.414214
v 1.000000 4.600000 1.732051
v 0.517638 4.600000 1.931852
v 0.000000 4.600000 2.000000
v -0.517638 4.600000 1.931852
v -1.000000 4.600000 1.732051
v -1.414214 4.600000 1.414214
v -1.732051 4.600000 1.000000
v -1.931852 4.600000 0.517638
v -2.000000 4.600000 0.000000
v -1.931852 4.600000 -0.517638
v -1.732051 4.600000 -1.000000
v -1.414214 4.600000 -1.414214
v -1.000000 4.600000 -1.732051
v -0.517638 4.600000 -1.931852
v -0.000000 4.600000 -2.000000
v 0.517638 4.600000 -1.931852
v 1.000000 4.600000 -1.732051
v 1.414214 4.600000 -1.414214
v 1.732051 4.600000 -1.000000
v 1.931852 4.600000 -0.517638
v 0.000000 2.200000 0.000000
v 0.000000 4.600000 0.000000
v 0.250000 3.450000 1.890000
v 0.950000 3.450000 1.890000
v 0.950000 3.950000 1.890000
v 0.250000 3.950000 1.890000
v 0.250000 3.450000 2.010000
v 0.950000 3.450000 2.010000
v 0.950000 3.950000 2.010000
v 0.250000 3.950000 2.010000
v -0.950000 3.450000 1.890000
v -0.250000 3.450000 1.890000
v -0.250000 3.950000 1.890000
v -0.950000 3.950000 1.890000
v -0.950000 3.450000 2.010000
v -0.250000 3.450000 2.010000
v -0.250000 3.950000 2.010000
v -0.950000 3.950000 2.010000
v -0.700000 2.240000 2.000000
v 0.700000 2.240000 2.000000
v 0.700000 2.360000 2.000000
v -0.700000 2.360000 2.000000
v -0.700000 2.240000 3.000000
v 0.700000 2.240000 3.000000
v 0.700000 2.360000 3.000000
v -0.700000 2.360000 3.000000
v 0.440000 -0.800000 2.900000
v 0.420000 -0.800000 2.934641
v 0.380000 -0.800000 2.934641
v 0.360000 -0.800000 2.900000
v 0.380000 -0.800000 2.865359
v 0.420000 -0.800000 2.865359
v 0.440000 0.800000 2.900000
v 0.420000 0.800000 2.934641
v 0.380000 0.800000 2.934641
v 0.360000 0.800000 2.900000
v 0.380000 0.800000 2.865359
v 0.420000 0.800000 2.865359
v 0.440000 2.400000 2.900000
v 0.420000 2.400000 2.934641
v 0.380000 2.400000 2.934641
v 0.360000 2.400000 2.900000
v 0.380000 2.400000 2.865359
v 0.420000 2.400000 2.865359
v 0.400000 -0.800000 2.900000
v 0.400000 2.400000 2.900000
v -0.360000 -0.800000 2.900000
v -0.380000 -0.800000 2.934641
v -0.420000 -0.800000 2.934641
v -0.440000 -0.800000 2.900000
v -0.420000 -0.800000 2.865359
v -0.380000 -0.800000 2.865359
v -0.360000 0.800000 2.900000
v -0.380000 0.800000 2.934641
v -0.420000 0.800000 2.934641
v -0.440000 0.800000 2.900000
v -0.420000 0.800000 2.865359
v -0.380000 0.800000 2.865359
v -0.360000 2.400000 2.900000
v -0.380000 2.400000 2.934641
v -0.420000 2.400000 2.934641
v -0.440000 2.400000 2.900000
v -0.420000 2.400000 2.865359
v -0.380000 2.400000 2.865359
v -0.400000 -0.800000 2.900000
v -0.400000 2.400000 2.900000
v -0.400000 -0.520000 2.880000
v 0.400000 -0.520000 2.880000
v 0.400000 -0.480000 2.880000
v -0.400000 -0.480000 2.880000
v -0.400000 -0.520000 2.920000
v 0.400000 -0.520000 2.920000
v 0.400000 -0.480000 2.920000
v -0.400000 -0.480000 2.920000
v -0.400000 -0.086667 2.880000
v 0.400000 -0.086667 2.880000
v 0.400000 -0.046667 2.880000
v -0.400000 -0.046667 2.880000
v -0.400000 -0.086667 2.920000
v 0.400000 -0.086667 2.920000
v 0.400000 -0.046667 2.920000
v -0.400000 -0.046667 2.920000
v -0.400000 0.346667 2.880000
v 0.400000 0.346667 2.880000
v 0.400000 0.386667 2.880000
v -0.400000 0.386667 2.880000
v -0.400000 0.346667 2.920000
v 0.400000 0.346667 2.920000
v 0.400000 0.386667 2.920000
v -0.400000 0.386667 2.920000
v -0.400000 0.780000 2.880000
v 0.400000 0.780000 2.880000
v 0.400000 0.820000 2.880000
v -0.400000 0.820000 2.880000
v -0.400000 0.780000 2.920000
v 0.400000 0.780000 2.920000
v 0.400000 0.820000 2.920000
v -0.400000 0.820000 2.920000
v -0.400000 1.213333 2.880000
v 0.400000 1.213333 2.880000
v 0.400000 1.253333 2.880000
v -0.400000 1.253333 2.880000
v -0.400000 1.213333 2.920000
v 0.400000 1.213333 2.920000
v 0.400000 1.253333 2.920000
v -0.400000 1.253333 2.920000
v -0.400000 1.646667 2.880000
v 0.400000 1.646667 2.880000
v 0.400000 1.686667 2.880000
v -0.400000 1.686667 2.880000
v -0.400000 1.646667 2.920000
v 0.400000 1.646667 2.920000
v 0.400000 1.686667 2.920000
v -0.400000 1.686667 2.920000
v -0.400000 2.080000 2.880000
v 0.400000 2.080000 2.880000
v 0.400000 2.120000 2.880000
v -0.400000 2.120000 2.880000
v -0.400000 2.080000 2.920000
v 0.400000 2.080000 2.920000
v 0.400000 2.120000 2.920000
v -0.400000 2.120000 2.920000
v 1.900000 3.850000 -1.200000
v 1.870711 3.850000 -1.129289
v 1.800000 3.850000 -1.100000
v 1.729289 3.850000 -1.129289
v 1.700000 3.850000 -1.200000
v 1.729289 3.850000 -1.270711
v 1.800000 3.850000 -1.300000
v 1.870711 3.850000 -1.270711
v 1.900000 4.600000 -1.200000
v 1.870711 4.600000 -1.129289
v 1.800000 4.600000 -1.100000
v 1.729289 4.600000 -1.129289
v 1.700000 4.600000 -1.200000
v 1.729289 4.600000 -1.270711
v 1.800000 4.600000 -1.300000
v 1.870711 4.600000 -1.270711
v 1.900000 5.350000 -1.200000
v 1.870711 5.350000 -1.129289
v 1.800000 5.350000 -1.100000
v 1.729289 5.350000 -1.129289
v 1.700000 5.350000 -1.200000
v 1.729289 5.350000 -1.270711
v 1.800000 5.350000 -1.300000
v 1.870711 5.350000 -1.270711
v 1.800000 3.850000 -1.200000
v 1.800000 5.350000 -1.200000
v 1.800000 5.400000 -1.200000
v 1.950000 5.400000 -1.206944
v 1.940954 5.451303 -1.206944
v 1.914907 5.496418 -1.206944
v 1.875000 5.529904 -1.206944
v 1.826047 5.547721 -1.206944
v 1.773953 5.547721 -1.206944
v 1.725000 5.529904 -1.206944
v 1.685093 5.496418 -1.206944
v 1.659046 5.451303 -1.206944
v 1.650000 5.400000 -1.206944
v 1.659046 5.348697 -1.206944
v 1.685093 5.303582 -1.206944
v 1.725000 5.270096 -1.206944
v 1.773953 5.252279 -1.206944
v 1.826047 5.252279 -1.206944
v 1.875000 5.270096 -1.206944
v 1.914907 5.303582 -1.206944
v 1.940954 5.348697 -1.206944
v 2.100000 5.400000 -1.227778
v 2.081908 5.502606 -1.227778
v 2.029813 5.592836 -1.227778
v 1.950000 5.659808 -1.227778
v 1.852094 5.695442 -1.227778
v 1.747906 5.695442 -1.227778
v 1.650000 5.659808 -1.227778
v 1.570187 5.592836 -1.227778
v 1.518092 5.502606 -1.227778
v 1.500000 5.400000 -1.227778
v 1.518092 5.297394 -1.227778
v 1.570187 5.207164 -1.227778
v 1.650000 5.140192 -1.227778
v 1.747906 5.104558 -1.227778
v 1.852094 5.104558 -1.227778
v 1.950000 5.140192 -1.227778
v 2.029813 5.207164 -1.227778
v 2.081908 5.297394 -1.227778
v 2.250000 5.400000 -1.262500
v 2.222862 5.553909 -1.262500
v 2.144720 5.689254 -1.262500
v 2.025000 5.789711 -1.262500
v 1.878142 5.843163 -1.262500
v 1.721858 5.843163 -1.262500
v 1.575000 5.789711 -1.262500
v 1.455280 5.689254 -1.262500
v 1.377138 5.553909 -1.262500
v 1.350000 5.400000 -1.262500
v 1.377138 5.246091 -1.262500
v 1.455280 5.110746 -1.262500
v 1.575000 5.010289 -1.262500
v 1.721858 4.956837 -1.262500
v 1.878142 4.956837 -1.262500
v 2.025000 5.010289 -1.262500
v 2.144720 5.110746 -1.262500
v 2.222862 5.246091 -1.262500
v 2.400000 5.400000 -1.311111
v 2.363816 5.605212 -1.311111
v 2.259627 5.785673 -1.311111
v 2.100000 5.919615 -1.311111
v 1.904189 5.990885 -1.311111
v 1.695811 5.990885 -1.311111
v 1.500000 5.919615 -1.311111
v 1.340373 5.785673 -1.311111
v 1.236184 5.605212 -1.311111
v 1.200000 5.400000 -1.311111
v 1.236184 5.194788 -1.311111
v 1.340373 5.014327 -1.311111
v 1.500000 4.880385 -1.311111
v 1.695811 4.809115 -1.311111
v 1.904189 4.809115 -1.311111
v 2.100000 4.880385 -1.311111
v 2.259627 5.014327 -1.311111
v 2.363816 5.194788 -1.311111
v 2.550000 5.400000 -1.373611
v 2.504769 5.656515 -1.373611
v 2.374533 5.882091 -1.373611
v 2.175000 6.049519 -1.373611
v 1.930236 6.138606 -1.373611
v 1.669764 6.138606 -1.373611
v 1.425000 6.049519 -1.373611
v 1.225467 5.882091 -1.373611
v 1.095231 5.656515 -1.373611
v 1.050000 5.400000 -1.373611
v 1.095231 5.143485 -1.373611
v 1.225467 4.917909 -1.373611
v 1.425000 4.750481 -1.373611
v 1.669764 4.661394 -1.373611
v 1.930236 4.661394 -1.373611
v 2.175000 4.750481 -1.373611
v 2.374533 4.917909 -1.373611
v 2.504769 5.143485 -1.373611
v 2.700000 5.400000 -1.450000
v 2.645723 5.707818 -1.450000
v 2.489440 5.978509 -1.450000
v 2.250000 6.179423 -1.450000
v 1.956283 6.286327 -1.450000
v 1.643717 6.286327 -1.450000
v 1.350000 6.179423 -1.450000
v 1.110560 5.978509 -1.450000
v 0.954277 5.707818 -1.450000
v 0.900000 5.400000 -1.450000
v 0.954277 5.092182 -1.450000
v 1.110560 4.821491 -1.450000
v 1.350000 4.620577 -1.450000
v 1.643717 4.513673 -1.450000
v 1.956283 4.513673 -1.450000
v 2.250000 4.620577 -1.450000
v 2.489440 4.821491 -1.450000
v 2.645723 5.092182 -1.450000
v 1.950000 3.650000 -0.150000
v 2.250000 3.650000 -0.150000
v 2.250000 3.950000 -0.150000
v 1.950000 3.950000 -0.150000
v 1.950000 3.650000 0.150000
v 2.250000 3.650000 0.150000
v 2.250000 3.950000 0.150000
v 1.950000 3.950000 0.150000
v -0.150000 3.650000 1.950000
v 0.150000 3.650000 1.950000
v 0.150000 3.950000 1.950000
v -0.150000 3.950000 1.950000
v -0.150000 3.650000 2.250000
v 0.150000 3.650000 2.250000
v 0.150000 3.950000 2.250000
v -0.150000 3.950000 2.250000
v -2.250000 3.650000 -0.150000
v -1.950000 3.650000 -0.150000
v -1.950000 3.950000 -0.150000
v -2.250000 3.950000 -0.150000
v -2.250000 3.650000 0.150000
v -1.950000 3.650000 0.150000
v -1.950000 3.950000 0.150000
v -2.250000 3.950000 0.150000
v -0.150000 3.650000 -2.250000
v 0.150000 3.650000 -2.250000
v 0.150000 3.950000 -2.250000
v -0.150000 3.950000 -2.250000
v -0.150000 3.650000 -1.950000
v 0.150000 3.650000 -1.950000
v 0.150000 3.950000 -1.950000
v -0.150000 3.950000 -1.950000

g ArtemisLanderV2
s 1
f 1 9 10
f 1 10 2
f 2 10 11
f 2 11 3
f 3 11 12
f 3 12 4
f 4 12 13
f 4 13 5
f 5 13 14
f 5 14 6
f 6 14 15
f 6 15 7
f 7 15 16
f 7 16 8
f 8 16 9
f 8 9 1
f 9 17 18
f 9 18 10
f 10 18 19
f 10 19 11
f 11 19 20
f 11 20 12
f 12 20 21
f 12 21 13
f 13 21 22
f 13 22 14
f 14 22 23
f 14 23 15
f 15 23 24
f 15 24 16
f 16 24 17
f 16 17 9
f 17 25 26
f 17 26 18
f 18 26 27
f 18 27 19
f 19 27 28
f 19 28 20
f 20 28 29
f 20 29 21
f 21 29 30
f 21 30 22
f 22 30 31
f 22 31 23
f 23 31 32
f 23 32 24
f 24 32 25
f 24 25 17
f 25 33 34
f 25 34 26
f 26 34 35
f 26 35 27
f 27 35 36
f 27 36 28
f 28 36 37
f 28 37 29
f 29 37 38
f 29 38 30
f 30 38 39
f 30 39 31
f 31 39 40
f 31 40 32
f 32 40 33
f 32 33 25
f 41 2 1
f 42 33 34
f 41 3 2
f 42 34 35
f 41 4 3
f 42 35 36
f 41 5 4
f 42 36 37
f 41 6 5
f 42 37 38
f 41 7 6
f 42 38 39
f 41 8 7
f 42 39 40
f 41 1 8
f 42 40 33
f 43 53 54
f 43 54 44
f 44 54 55
f 44 55 45
f 45 55 56
f 45 56 46
f 46 56 57
f 46 57 47
f 47 57 58
f 47 58 48
f 48 58 59
f 48 59 49
f 49 59 60
f 49 60 50
f 50 60 61
f 50 61 51
f 51 61 62
f 51 62 52
f 52 62 53
f 52 53 43
f 53 63 64
f 53 64 54
f 54 64 65
f 54 65 55
f 55 65 66
f 55 66 56
f 56 66 67
f 56 67 57
f 57 67 68
f 57 68 58
f 58 68 69
f 58 69 59
f 59 69 70
f 59 70 60
f 60 70 71
f 60 71 61
f 61 71 72
f 61 72 62
f 62 72 63
f 62 63 53
f 63 73 74
f 63 74 64
f 64 74 75
f 64 75 65
f 65 75 76
f 65 76 66
f 66 76 77
f 66 77 67
f 67 77 78
f 67 78 68
f 68 78 79
f 68 79 69
f 69 79 80
f 69 80 70
f 70 80 81
f 70 81 71
f 71 81 82
f 71 82 72
f 72 82 73
f 72 73 63
f 83 44 43
f 84 73 74
f 83 45 44
f 84 74 75
f 83 46 45
f 84 75 76
f 83 47 46
f 84 76 77
f 83 48 47
f 84 77 78
f 83 49 48
f 84 78 79
f 83 50 49
f 84 79 80
f 83 51 50
f 84 80 81
f 83 52 51
f 84 81 82
f 83 43 52
f 84 82 73
f 85 93 94
f 85 94 86
f 86 94 95
f 86 95 87
f 87 95 96
f 87 96 88
f 88 96 97
f 88 97 89
f 89 97 98
f 89 98 90
f 90 98 99
f 90 99 91
f 91 99 100
f 91 100 92
f 92 100 93
f 92 93 85
f 93 101 102
f 93 102 94
f 94 102 103
f 94 103 95
f 95 103 104
f 95 104 96
f 96 104 105
f 96 105 97
f 97 105 106
f 97 106 98
f 98 106 107
f 98 107 99
f 99 107 108
f 99 108 100
f 100 108 101
f 100 101 93
f 109 86 85
f 110 101 102
f 109 87 86
f 110 102 103
f 109 88 87
f 110 103 104
f 109 89 88
f 110 104 105
f 109 90 89
f 110 105 106
f 109 91 90
f 110 106 107
f 109 92 91
f 110 107 108
f 109 85 92
f 110 108 101
f 111 127 128
f 111 128 112
f 112 128 129
f 112 129 113
f 113 129 130
f 113 130 114
f 114 130 131
f 114 131 115
f 115 131 132
f 115 132 116
f 116 132 133
f 116 133 117
f 117 133 134
f 117 134 118
f 118 134 135
f 118 135 119
f 119 135 136
f 119 136 120
f 120 136 137
f 120 137 121
f 121 137 138
f 121 138 122
f 122 138 139
f 122 139 123
f 123 139 140
f 123 140 124
f 124 140 141
f 124 141 125
f 125 141 142
f 125 142 126
f 126 142 127
f 126 127 111
f 127 143 144
f 127 144 128
f 128 144 145
f 128 145 129
f 129 145 146
f 129 146 130
f 130 146 147
f 130 147 131
f 131 147 148
f 131 148 132
f 132 148 149
f 132 149 133
f 133 149 150
f 133 150 134
f 134 150 151
f 134 151 135
f 135 151 152
f 135 152 136
f 136 152 153
f 136 153 137
f 137 153 154
f 137 154 138
f 138 154 155
f 138 155 139
f 139 155 156
f 139 156 140
f 140 156 157
f 140 157 141
f 141 157 158
f 141 158 142
f 142 158 143
f 142 143 127
f 159 112 111
f 160 143 144
f 159 113 112
f 160 144 145
f 159 114 113
f 160 145 146
f 159 115 114
f 160 146 147
f 159 116 115
f 160 147 148
f 159 117 116
f 160 148 149
f 159 118 117
f 160 149 150
f 159 119 118
f 160 150 151
f 159 120 119
f 160 151 152
f 159 121 120
f 160 152 153
f 159 122 121
f 160 153 154
f 159 123 122
f 160 154 155
f 159 124 123
f 160 155 156
f 159 125 124
f 160 156 157
f 159 126 125
f 160 157 158
f 159 111 126
f 160 158 143
f 161 167 168
f 161 168 162
f 162 168 169
f 162 169 163
f 163 169 170
f 163 170 164
f 164 170 171
f 164 171 165
f 165 171 172
f 165 172 166
f 166 172 167
f 166 167 161
f 173 162 161
f 174 167 168
f 173 163 162
f 174 168 169
f 173 164 163
f 174 169 170
f 173 165 164
f 174 170 171
f 173 166 165
f 174 171 172
f 173 161 166
f 174 172 167
f 175 185 186
f 175 186 176
f 176 186 187
f 176 187 177
f 177 187 188
f 177 188 178
f 178 188 189
f 178 189 179
f 179 189 190
f 179 190 180
f 180 190 191
f 180 191 181
f 181 191 192
f 181 192 182
f 182 192 193
f 182 193 183
f 183 193 194
f 183 194 184
f 184 194 185
f 184 185 175
f 185 195 196
f 185 196 186
f 186 196 197
f 186 197 187
f 187 197 198
f 187 198 188
f 188 198 199
f 188 199 189
f 189 199 200
f 189 200 190
f 190 200 201
f 190 201 191
f 191 201 202
f 191 202 192
f 192 202 203
f 192 203 193
f 193 203 204
f 193 204 194
f 194 204 195
f 194 195 185
f 195 205 206
f 195 206 196
f 196 206 207
f 196 207 197
f 197 207 208
f 197 208 198
f 198 208 209
f 198 209 199
f 199 209 210
f 199 210 200
f 200 210 211
f 200 211 201
f 201 211 212
f 201 212 202
f 202 212 213
f 202 213 203
f 203 213 214
f 203 214 204
f 204 214 205
f 204 205 195
f 215 176 175
f 216 205 206
f 215 177 176
f 216 206 207
f 215 178 177
f 216 207 208
f 215 179 178
f 216 208 209
f 215 180 179
f 216 209 210
f 215 181 180
f 216 210 211
f 215 182 181
f 216 211 212
f 215 183 182
f 216 212 213
f 215 184 183
f 216 213 214
f 215 175 184
f 216 214 205
f 217 225 226
f 217 226 218
f 218 226 227
f 218 227 219
f 219 227 228
f 219 228 220
f 220 228 229
f 220 229 221
f 221 229 230
f 221 230 222
f 222 230 231
f 222 231 223
f 223 231 232
f 223 232 224
f 224 232 225
f 224 225 217
f 225 233 234
f 225 234 226
f 226 234 235
f 226 235 227
f 227 235 236
f 227 236 228
f 228 236 237
f 228 237 229
f 229 237 238
f 229 238 230
f 230 238 239
f 230 239 231
f 231 239 240
f 231 240 232
f 232 240 233
f 232 233 225
f 241 218 217
f 242 233 234
f 241 219 218
f 242 234 235
f 241 220 219
f 242 235 236
f 241 221 220
f 242 236 237
f 241 222 221
f 242 237 238
f 241 223 222
f 242 238 239
f 241 224 223
f 242 239 240
f 241 217 224
f 242 240 233
f 243 259 260
f 243 260 244
f 244 260 261
f 244 261 245
f 245 261 262
f 245 262 246
f 246 262 263
f 246 263 247
f 247 263 264
f 247 264 248
f 248 264 265
f 248 265 249
f 249 265 266
f 249 266 250
f 250 266 267
f 250 267 251
f 251 267 268
f 251 268 252
f 252 268 269
f 252 269 253
f 253 269 270
f 253 270 254
f 254 270 271
f 254 271 255
f 255 271 272
f 255 272 256
f 256 272 273
f 256 273 257
f 257 273 274
f 257 274 258
f 258 274 259
f 258 259 243
f 259 275 276
f 259 276 260
f 260 276 277
f 260 277 261
f 261 277 278
f 261 278 262
f 262 278 279
f 262 279 263
f 263 279 280
f 263 280 264
f 264 280 281
f 264 281 265
f 265 281 282
f 265 282 266
f 266 282 283
f 266 283 267
f 267 283 284
f 267 284 268
f 268 284 285
f 268 285 269
f 269 285 286
f 269 286 270
f 270 286 287
f 270 287 271
f 271 287 288
f 271 288 272
f 272 288 289
f 272 289 273
f 273 289 290
f 273 290 274
f 274 290 275
f 274 275 259
f 291 244 243
f 292 275 276
f 291 245 244
f 292 276 277
f 291 246 245
f 292 277 278
f 291 247 246
f 292 278 279
f 291 248 247
f 292 279 280
f 291 249 248
f 292 280 281
f 291 250 249
f 292 281 282
f 291 251 250
f 292 282 283
f 291 252 251
f 292 283 284
f 291 253 252
f 292 284 285
f 291 254 253
f 292 285 286
f 291 255 254
f 292 286 287
f 291 256 255
f 292 287 288
f 291 257 256
f 292 288 289
f 291 258 257
f 292 289 290
f 291 243 258
f 292 290 275
f 293 299 300
f 293 300 294
f 294 300 301
f 294 301 295
f 295 301 302
f 295 302 296
f 296 302 303
f 296 303 297
f 297 303 304
f 297 304 298
f 298 304 299
f 298 299 293
f 305 294 293
f 306 299 300
f 305 295 294
f 306 300 301
f 305 296 295
f 306 301 302
f 305 297 296
f 306 302 303
f 305 298 297
f 306 303 304
f 305 293 298
f 306 304 299
f 307 317 318
f 307 318 308
f 308 318 319
f 308 319 309
f 309 319 320
f 309 320 310
f 310 320 321
f 310 321 311
f 311 321 322
f 311 322 312
f 312 322 323
f 312 323 313
f 313 323 324
f 313 324 314
f 314 324 325
f 314 325 315
f 315 325 326
f 315 326 316
f 316 326 317
f 316 317 307
f 317 327 328
f 317 328 318
f 318 328 329
f 318 329 319
f 319 329 330
f 319 330 320
f 320 330 331
f 320 331 321
f 321 331 332
f 321 332 322
f 322 332 333
f 322 333 323
f 323 333 334
f 323 334 324
f 324 334 335
f 324 335 325
f 325 335 336
f 325 336 326
f 326 336 327
f 326 327 317
f 327 337 338
f 327 338 328
f 328 338 339
f 328 339 329
f 329 339 340
f 329 340 330
f 330 340 341
f 330 341 331
f 331 341 342
f 331 342 332
f 332 342 343
f 332 343 333
f 333 343 344
f 333 344 334
f 334 344 345
f 334 345 335
f 335 345 346
f 335 346 336
f 336 346 337
f 336 337 327
f 347 308 307
f 348 337 338
f 347 309 308
f 348 338 339
f 347 310 309
f 348 339 340
f 347 311 310
f 348 340 341
f 347 312 311
f 348 341 342
f 347 313 312
f 348 342 343
f 347 314 313
f 348 343 344
f 347 315 314
f 348 344 345
f 347 316 315
f 348 345 346
f 347 307 316
f 348 346 337
f 349 357 358
f 349 358 350
f 350 358 359
f 350 359 351
f 351 359 360
f 351 360 352
f 352 360 361
f 352 361 353
f 353 361 362
f 353 362 354
f 354 362 363
f 354 363 355
f 355 363 364
f 355 364 356
f 356 364 357
f 356 357 349
f 357 365 366
f 357 366 358
f 358 366 367
f 358 367 359
f 359 367 368
f 359 368 360
f 360 368 369
f 360 369 361
f 361 369 370
f 361 370 362
f 362 370 371
f 362 371 363
f 363 371 372
f 363 372 364
f 364 372 365
f 364 365 357
f 373 350 349
f 374 365 366
f 373 351 350
f 374 366 367
f 373 352 351
f 374 367 368
f 373 353 352
f 374 368 369
f 373 354 353
f 374 369 370
f 373 355 354
f 374 370 371
f 373 356 355
f 374 371 372
f 373 349 356
f 374 372 365
f 375 391 392
f 375 392 376
f 376 392 393
f 376 393 377
f 377 393 394
f 377 394 378
f 378 394 395
f 378 395 379
f 379 395 396
f 379 396 380
f 380 396 397
f 380 397 381
f 381 397 398
f 381 398 382
f 382 398 399
f 382 399 383
f 383 399 400
f 383 400 384
f 384 400 401
f 384 401 385
f 385 401 402
f 385 402 386
f 386 402 403
f 386 403 387
f 387 403 404
f 387 404 388
f 388 404 405
f 388 405 389
f 389 405 406
f 389 406 390
f 390 406 391
f 390 391 375
f 391 407 408
f 391 408 392
f 392 408 409
f 392 409 393
f 393 409 410
f 393 410 394
f 394 410 411
f 394 411 395
f 395 411 412
f 395 412 396
f 396 412 413
f 396 413 397
f 397 413 414
f 397 414 398
f 398 414 415
f 398 415 399
f 399 415 416
f 399 416 400
f 400 416 417
f 400 417 401
f 401 417 418
f 401 418 402
f 402 418 419
f 402 419 403
f 403 419 420
f 403 420 404
f 404 420 421
f 404 421 405
f 405 421 422
f 405 422 406
f 406 422 407
f 406 407 391
f 423 376 375
f 424 407 408
f 423 377 376
f 424 408 409
f 423 378 377
f 424 409 410
f 423 379 378
f 424 410 411
f 423 380 379
f 424 411 412
f 423 381 380
f 424 412 413
f 423 382 381
f 424 413 414
f 423 383 382
f 424 414 415
f 423 384 383
f 424 415 416
f 423 385 384
f 424 416 417
f 423 386 385
f 424 417 418
f 423 387 386
f 424 418 419
f 423 388 387
f 424 419 420
f 423 389 388
f 424 420 421
f 423 390 389
f 424 421 422
f 423 375 390
f 424 422 407
f 425 431 432
f 425 432 426
f 426 432 433
f 426 433 427
f 427 433 434
f 427 434 428
f 428 434 435
f 428 435 429
f 429 435 436
f 429 436 430
f 430 436 431
f 430 431 425
f 437 426 425
f 438 431 432
f 437 427 426
f 438 432 433
f 437 428 427
f 438 433 434
f 437 429 428
f 438 434 435
f 437 430 429
f 438 435 436
f 437 425 430
f 438 436 431
f 439 449 450
f 439 450 440
f 440 450 451
f 440 451 441
f 441 451 452
f 441 452 442
f 442 452 453
f 442 453 443
f 443 453 454
f 443 454 444
f 444 454 455
f 444 455 445
f 445 455 456
f 445 456 446
f 446 456 457
f 446 457 447
f 447 457 458
f 447 458 448
f 448 458 449
f 448 449 439
f 449 459 460
f 449 460 450
f 450 460 461
f 450 461 451
f 451 461 462
f 451 462 452
f 452 462 463
f 452 463 453
f 453 463 464
f 453 464 454
f 454 464 465
f 454 465 455
f 455 465 466
f 455 466 456
f 456 466 467
f 456 467 457
f 457 467 468
f 457 468 458
f 458 468 459
f 458 459 449
f 459 469 470
f 459 470 460
f 460 470 471
f 460 471 461
f 461 471 472
f 461 472 462
f 462 472 473
f 462 473 463
f 463 473 474
f 463 474 464
f 464 474 475
f 464 475 465
f 465 475 476
f 465 476 466
f 466 476 477
f 466 477 467
f 467 477 478
f 467 478 468
f 468 478 469
f 468 469 459
f 479 440 439
f 480 469 470
f 479 441 440
f 480 470 471
f 479 442 441
f 480 471 472
f 479 443 442
f 480 472 473
f 479 444 443
f 480 473 474
f 479 445 444
f 480 474 475
f 479 446 445
f 480 475 476
f 479 447 446
f 480 476 477
f 479 448 447
f 480 477 478
f 479 439 448
f 480 478 469
f 481 489 490
f 481 490 482
f 482 490 491
f 482 491 483
f 483 491 492
f 483 492 484
f 484 492 493
f 484 493 485
f 485 493 494
f 485 494 486
f 486 494 495
f 486 495 487
f 487 495 496
f 487 496 488
f 488 496 489
f 488 489 481
f 489 497 498
f 489 498 490
f 490 498 499
f 490 499 491
f 491 499 500
f 491 500 492
f 492 500 501
f 492 501 493
f 493 501 502
f 493 502 494
f 494 502 503
f 494 503 495
f 495 503 504
f 495 504 496
f 496 504 497
f 496 497 489
f 505 482 481
f 506 497 498
f 505 483 482
f 506 498 499
f 505 484 483
f 506 499 500
f 505 485 484
f 506 500 501
f 505 486 485
f 506 501 502
f 505 487 486
f 506 502 503
f 505 488 487
f 506 503 504
f 505 481 488
f 506 504 497
f 507 523 524
f 507 524 508
f 508 524 525
f 508 525 509
f 509 525 526
f 509 526 510
f 510 526 527
f 510 527 511
f 511 527 528
f 511 528 512
f 512 528 529
f 512 529 513
f 513 529 530
f 513 530 514
f 514 530 531
f 514 531 515
f 515 531 532
f 515 532 516
f 516 532 533
f 516 533 517
f 517 533 534
f 517 534 518
f 518 534 535
f 518 535 519
f 519 535 536
f 519 536 520
f 520 536 537
f 520 537 521
f 521 537 538
f 521 538 522
f 522 538 523
f 522 523 507
f 523 539 540
f 523 540 524
f 524 540 541
f 524 541 525
f 525 541 542
f 525 542 526
f 526 542 543
f 526 543 527
f 527 543 544
f 527 544 528
f 528 544 545
f 528 545 529
f 529 545 546
f 529 546 530
f 530 546 547
f 530 547 531
f 531 547 548
f 531 548 532
f 532 548 549
f 532 549 533
f 533 549 550
f 533 550 534
f 534 550 551
f 534 551 535
f 535 551 552
f 535 552 536
f 536 552 553
f 536 553 537
f 537 553 554
f 537 554 538
f 538 554 539
f 538 539 523
f 555 508 507
f 556 539 540
f 555 509 508
f 556 540 541
f 555 510 509
f 556 541 542
f 555 511 510
f 556 542 543
f 555 512 511
f 556 543 544
f 555 513 512
f 556 544 545
f 555 514 513
f 556 545 546
f 555 515 514
f 556 546 547
f 555 516 515
f 556 547 548
f 555 517 516
f 556 548 549
f 555 518 517
f 556 549 550
f 555 519 518
f 556 550 551
f 555 520 519
f 556 551 552
f 555 521 520
f 556 552 553
f 555 522 521
f 556 553 554
f 555 507 522
f 556 554 539
f 557 563 564
f 557 564 558
f 558 564 565
f 558 565 559
f 559 565 566
f 559 566 560
f 560 566 567
f 560 567 561
f 561 567 568
f 561 568 562
f 562 568 563
f 562 563 557
f 569 558 557
f 570 563 564
f 569 559 558
f 570 564 565
f 569 560 559
f 570 565 566
f 569 561 560
f 570 566 567
f 569 562 561
f 570 567 568
f 569 557 562
f 570 568 563
f 571 595 596
f 571 596 572
f 572 596 597
f 572 597 573
f 573 597 598
f 573 598 574
f 574 598 599
f 574 599 575
f 575 599 600
f 575 600 576
f 576 600 601
f 576 601 577
f 577 601 602
f 577 602 578
f 578 602 603
f 578 603 579
f 579 603 604
f 579 604 580
f 580 604 605
f 580 605 581
f 581 605 606
f 581 606 582
f 582 606 607
f 582 607 583
f 583 607 608
f 583 608 584
f 584 608 609
f 584 609 585
f 585 609 610
f 585 610 586
f 586 610 611
f 586 611 587
f 587 611 612
f 587 612 588
f 588 612 613
f 588 613 589
f 589 613 614
f 589 614 590
f 590 614 615
f 590 615 591
f 591 615 616
f 591 616 592
f 592 616 617
f 592 617 593
f 593 617 618
f 593 618 594
f 594 618 595
f 594 595 571
f 595 619 620
f 595 620 596
f 596 620 621
f 596 621 597
f 597 621 622
f 597 622 598
f 598 622 623
f 598 623 599
f 599 623 624
f 599 624 600
f 600 624 625
f 600 625 601
f 601 625 626
f 601 626 602
f 602 626 627
f 602 627 603
f 603 627 628
f 603 628 604
f 604 628 629
f 604 629 605
f 605 629 630
f 605 630 606
f 606 630 631
f 606 631 607
f 607 631 632
f 607 632 608
f 608 632 633
f 608 633 609
f 609 633 634
f 609 634 610
f 610 634 635
f 610 635 611
f 611 635 636
f 611 636 612
f 612 636 637
f 612 637 613
f 613 637 638
f 613 638 614
f 614 638 639
f 614 639 615
f 615 639 640
f 615 640 616
f 616 640 641
f 616 641 617
f 617 641 642
f 617 642 618
f 618 642 619
f 618 619 595
f 619 643 644
f 619 644 620
f 620 644 645
f 620 645 621
f 621 645 646
f 621 646 622
f 622 646 647
f 622 647 623
f 623 647 648
f 623 648 624
f 624 648 649
f 624 649 625
f 625 649 650
f 625 650 626
f 626 650 651
f 626 651 627
f 627 651 652
f 627 652 628
f 628 652 653
f 628 653 629
f 629 653 654
f 629 654 630
f 630 654 655
f 630 655 631
f 631 655 656
f 631 656 632
f 632 656 657
f 632 657 633
f 633 657 658
f 633 658 634
f 634 658 659
f 634 659 635
f 635 659 660
f 635 660 636
f 636 660 661
f 636 661 637
f 637 661 662
f 637 662 638
f 638 662 663
f 638 663 639
f 639 663 664
f 639 664 640
f 640 664 665
f 640 665 641
f 641 665 666
f 641 666 642
f 642 666 643
f 642 643 619
f 643 667 668
f 643 668 644
f 644 668 669
f 644 669 645
f 645 669 670
f 645 670 646
f 646 670 671
f 646 671 647
f 647 671 672
f 647 672 648
f 648 672 673
f 648 673 649
f 649 673 674
f 649 674 650
f 650 674 675
f 650 675 651
f 651 675 676
f 651 676 652
f 652 676 677
f 652 677 653
f 653 677 678
f 653 678 654
f 654 678 679
f 654 679 655
f 655 679 680
f 655 680 656
f 656 680 681
f 656 681 657
f 657 681 682
f 657 682 658
f 658 682 683
f 658 683 659
f 659 683 684
f 659 684 660
f 660 684 685
f 660 685 661
f 661 685 686
f 661 686 662
f 662 686 687
f 662 687 663
f 663 687 688
f 663 688 664
f 664 688 689
f 664 689 665
f 665 689 690
f 665 690 666
f 666 690 667
f 666 667 643
f 691 572 571
f 692 667 668
f 691 573 572
f 692 668 669
f 691 574 573
f 692 669 670
f 691 575 574
f 692 670 671
f 691 576 575
f 692 671 672
f 691 577 576
f 692 672 673
f 691 578 577
f 692 673 674
f 691 579 578
f 692 674 675
f 691 580 579
f 692 675 676
f 691 581 580
f 692 676 677
f 691 582 581
f 692 677 678
f 691 583 582
f 692 678 679
f 691 584 583
f 692 679 680
f 691 585 584
f 692 680 681
f 691 586 585
f 692 681 682
f 691 587 586
f 692 682 683
f 691 588 587
f 692 683 684
f 691 589 588
f 692 684 685
f 691 590 589
f 692 685 686
f 691 591 590
f 692 686 687
f 691 592 591
f 692 687 688
f 691 593 592
f 692 688 689
f 691 594 593
f 692 689 690
f 691 571 594
f 692 690 667
f 693 717 718
f 693 718 694
f 694 718 719
f 694 719 695
f 695 719 720
f 695 720 696
f 696 720 721
f 696 721 697
f 697 721 722
f 697 722 698
f 698 722 723
f 698 723 699
f 699 723 724
f 699 724 700
f 700 724 725
f 700 725 701
f 701 725 726
f 701 726 702
f 702 726 727
f 702 727 703
f 703 727 728
f 703 728 704
f 704 728 729
f 704 729 705
f 705 729 730
f 705 730 706
f 706 730 731
f 706 731 707
f 707 731 732
f 707 732 708
f 708 732 733
f 708 733 709
f 709 733 734
f 709 734 710
f 710 734 735
f 710 735 711
f 711 735 736
f 711 736 712
f 712 736 737
f 712 737 713
f 713 737 738
f 713 738 714
f 714 738 739
f 714 739 715
f 715 739 740
f 715 740 716
f 716 740 717
f 716 717 693
f 717 741 742
f 717 742 718
f 718 742 743
f 718 743 719
f 719 743 744
f 719 744 720
f 720 744 745
f 720 745 721
f 721 745 746
f 721 746 722
f 722 746 747
f 722 747 723
f 723 747 748
f 723 748 724
f 724 748 749
f 724 749 725
f 725 749 750
f 725 750 726
f 726 750 751
f 726 751 727
f 727 751 752
f 727 752 728
f 728 752 753
f 728 753 729
f 729 753 754
f 729 754 730
f 730 754 755
f 730 755 731
f 731 755 756
f 731 756 732
f 732 756 757
f 732 757 733
f 733 757 758
f 733 758 734
f 734 758 759
f 734 759 735
f 735 759 760
f 735 760 736
f 736 760 761
f 736 761 737
f 737 761 762
f 737 762 738
f 738 762 763
f 738 763 739
f 739 763 764
f 739 764 740
f 740 764 741
f 740 741 717
f 741 765 766
f 741 766 742
f 742 766 767
f 742 767 743
f 743 767 768
f 743 768 744
f 744 768 769
f 744 769 745
f 745 769 770
f 745 770 746
f 746 770 771
f 746 771 747
f 747 771 772
f 747 772 748
f 748 772 773
f 748 773 749
f 749 773 774
f 749 774 750
f 750 774 775
f 750 775 751
f 751 775 776
f 751 776 752
f 752 776 777
f 752 777 753
f 753 777 778
f 753 778 754
f 754 778 779
f 754 779 755
f 755 779 780
f 755 780 756
f 756 780 781
f 756 781 757
f 757 781 782
f 757 782 758
f 758 782 783
f 758 783 759
f 759 783 784
f 759 784 760
f 760 784 785
f 760 785 761
f 761 785 786
f 761 786 762
f 762 786 787
f 762 787 763
f 763 787 788
f 763 788 764
f 764 788 765
f 764 765 741
f 765 789 790
f 765 790 766
f 766 790 791
f 766 791 767
f 767 791 792
f 767 792 768
f 768 792 793
f 768 793 769
f 769 793 794
f 769 794 770
f 770 794 795
f 770 795 771
f 771 795 796
f 771 796 772
f 772 796 797
f 772 797 773
f 773 797 798
f 773 798 774
f 774 798 799
f 774 799 775
f 775 799 800
f 775 800 776
f 776 800 801
f 776 801 777
f 777 801 802
f 777 802 778
f 778 802 803
f 778 803 779
f 779 803 804
f 779 804 780
f 780 804 805
f 780 805 781
f 781 805 806
f 781 806 782
f 782 806 807
f 782 807 783
f 783 807 808
f 783 808 784
f 784 808 809
f 784 809 785
f 785 809 810
f 785 810 786
f 786 810 811
f 786 811 787
f 787 811 812
f 787 812 788
f 788 812 789
f 788 789 765
f 813 694 693
f 814 789 790
f 813 695 694
f 814 790 791
f 813 696 695
f 814 791 792
f 813 697 696
f 814 792 793
f 813 698 697
f 814 793 794
f 813 699 698
f 814 794 795
f 813 700 699
f 814 795 796
f 813 701 700
f 814 796 797
f 813 702 701
f 814 797 798
f 813 703 702
f 814 798 799
f 813 704 703
f 814 799 800
f 813 705 704
f 814 800 801
f 813 706 705
f 814 801 802
f 813 707 706
f 814 802 803
f 813 708 707
f 814 803 804
f 813 709 708
f 814 804 805
f 813 710 709
f 814 805 806
f 813 711 710
f 814 806 807
f 813 712 711
f 814 807 808
f 813 713 712
f 814 808 809
f 813 714 713
f 814 809 810
f 813 715 714
f 814 810 811
f 813 716 715
f 814 811 812
f 813 693 716
f 814 812 789
f 815 817 816
f 815 818 817
f 819 820 821
f 819 821 822
f 815 819 822
f 815 822 818
f 816 817 821
f 816 821 820
f 818 822 821
f 818 821 817
f 815 816 820
f 815 820 819
f 823 825 824
f 823 826 825
f 827 828 829
f 827 829 830
f 823 827 830
f 823 830 826
f 824 825 829
f 824 829 828
f 826 830 829
f 826 829 825
f 823 824 828
f 823 828 827
f 831 833 832
f 831 834 833
f 835 836 837
f 835 837 838
f 831 835 838
f 831 838 834
f 832 833 837
f 832 837 836
f 834 838 837
f 834 837 833
f 831 832 836
f 831 836 835
f 839 845 846
f 839 846 840
f 840 846 847
f 840 847 841
f 841 847 848
f 841 848 842
f 842 848 849
f 842 849 843
f 843 849 850
f 843 850 844
f 844 850 845
f 844 845 839
f 845 851 852
f 845 852 846
f 846 852 853
f 846 853 847
f 847 853 854
f 847 854 848
f 848 854 855
f 848 855 849
f 849 855 856
f 849 856 850
f 850 856 851
f 850 851 845
f 857 840 839
f 858 851 852
f 857 841 840
f 858 852 853
f 857 842 841
f 858 853 854
f 857 843 842
f 858 854 855
f 857 844 843
f 858 855 856
f 857 839 844
f 858 856 851
f 859 865 866
f 859 866 860
f 860 866 867
f 860 867 861
f 861 867 868
f 861 868 862
f 862 868 869
f 862 869 863
f 863 869 870
f 863 870 864
f 864 870 865
f 864 865 859
f 865 871 872
f 865 872 866
f 866 872 873
f 866 873 867
f 867 873 874
f 867 874 868
f 868 874 875
f 868 875 869
f 869 875 876
f 869 876 870
f 870 876 871
f 870 871 865
f 877 860 859
f 878 871 872
f 877 861 860
f 878 872 873
f 877 862 861
f 878 873 874
f 877 863 862
f 878 874 875
f 877 864 863
f 878 875 876
f 877 859 864
f 878 876 871
f 879 881 880
f 879 882 881
f 883 884 885
f 883 885 886
f 879 883 886
f 879 886 882
f 880 881 885
f 880 885 884
f 882 886 885
f 882 885 881
f 879 880 884
f 879 884 883
f 887 889 888
f 887 890 889
f 891 892 893
f 891 893 894
f 887 891 894
f 887 894 890
f 888 889 893
f 888 893 892
f 890 894 893
f 890 893 889
f 887 888 892
f 887 892 891
f 895 897 896
f 895 898 897
f 899 900 901
f 899 901 902
f 895 899 902
f 895 902 898
f 896 897 901
f 896 901 900
f 898 902 901
f 898 901 897
f 895 896 900
f 895 900 899
f 903 905 904
f 903 906 905
f 907 908 909
f 907 909 910
f 903 907 910
f 903 910 906
f 904 905 909
f 904 909 908
f 906 910 909
f 906 909 905
f 903 904 908
f 903 908 907
f 911 913 912
f 911 914 913
f 915 916 917
f 915 917 918
f 911 915 918
f 911 918 914
f 912 913 917
f 912 917 916
f 914 918 917
f 914 917 913
f 911 912 916
f 911 916 915
f 919 921 920
f 919 922 921
f 923 924 925
f 923 925 926
f 919 923 926
f 919 926 922
f 920 921 925
f 920 925 924
f 922 926 925
f 922 925 921
f 919 920 924
f 919 924 923
f 927 929 928
f 927 930 929
f 931 932 933
f 931 933 934
f 927 931 934
f 927 934 930
f 928 929 933
f 928 933 932
f 930 934 933
f 930 933 929
f 927 928 932
f 927 932 931
f 935 943 944
f 935 944 936
f 936 944 945
f 936 945 937
f 937 945 946
f 937 946 938
f 938 946 947
f 938 947 939
f 939 947 948
f 939 948 940
f 940 948 949
f 940 949 941
f 941 949 950
f 941 950 942
f 942 950 943
f 942 943 935
f 943 951 952
f 943 952 944
f 944 952 953
f 944 953 945
f 945 953 954
f 945 954 946
f 946 954 955
f 946 955 947
f 947 955 956
f 947 956 948
f 948 956 957
f 948 957 949
f 949 957 958
f 949 958 950
f 950 958 951
f 950 951 943
f 959 936 935
f 960 951 952
f 959 937 936
f 960 952 953
f 959 938 937
f 960 953 954
f 959 939 938
f 960 954 955
f 959 940 939
f 960 955 956
f 959 941 940
f 960 956 957
f 959 942 941
f 960 957 958
f 959 935 942
f 960 958 951
f 961 962 963
f 961 963 964
f 961 964 965
f 961 965 966
f 961 966 967
f 961 967 968
f 961 968 969
f 961 969 970
f 961 970 971
f 961 971 972
f 961 972 973
f 961 973 974
f 961 974 975
f 961 975 976
f 961 976 977
f 961 977 978
f 961 978 979
f 961 979 962
f 962 980 981
f 962 981 963
f 963 981 982
f 963 982 964
f 964 982 983
f 964 983 965
f 965 983 984
f 965 984 966
f 966 984 985
f 966 985 967
f 967 985 986
f 967 986 968
f 968 986 987
f 968 987 969
f 969 987 988
f 969 988 970
f 970 988 989
f 970 989 971
f 971 989 990
f 971 990 972
f 972 990 991
f 972 991 973
f 973 991 992
f 973 992 974
f 974 992 993
f 974 993 975
f 975 993 994
f 975 994 976
f 976 994 995
f 976 995 977
f 977 995 996
f 977 996 978
f 978 996 997
f 978 997 979
f 979 997 980
f 979 980 962
f 980 998 999
f 980 999 981
f 981 999 1000
f 981 1000 982
f 982 1000 1001
f 982 1001 983
f 983 1001 1002
f 983 1002 984
f 984 1002 1003
f 984 1003 985
f 985 1003 1004
f 985 1004 986
f 986 1004 1005
f 986 1005 987
f 987 1005 1006
f 987 1006 988
f 988 1006 1007
f 988 1007 989
f 989 1007 1008
f 989 1008 990
f 990 1008 1009
f 990 1009 991
f 991 1009 1010
f 991 1010 992
f 992 1010 1011
f 992 1011 993
f 993 1011 1012
f 993 1012 994
f 994 1012 1013
f 994 1013 995
f 995 1013 1014
f 995 1014 996
f 996 1014 1015
f 996 1015 997
f 997 1015 998
f 997 998 980
f 998 1016 1017
f 998 1017 999
f 999 1017 1018
f 999 1018 1000
f 1000 1018 1019
f 1000 1019 1001
f 1001 1019 1020
f 1001 1020 1002
f 1002 1020 1021
f 1002 1021 1003
f 1003 1021 1022
f 1003 1022 1004
f 1004 1022 1023
f 1004 1023 1005
f 1005 1023 1024
f 1005 1024 1006
f 1006 1024 1025
f 1006 1025 1007
f 1007 1025 1026
f 1007 1026 1008
f 1008 1026 1027
f 1008 1027 1009
f 1009 1027 1028
f 1009 1028 1010
f 1010 1028 1029
f 1010 1029 1011
f 1011 1029 1030
f 1011 1030 1012
f 1012 1030 1031
f 1012 1031 1013
f 1013 1031 1032
f 1013 1032 1014
f 1014 1032 1033
f 1014 1033 1015
f 1015 1033 1016
f 1015 1016 998
f 1016 1034 1035
f 1016 1035 1017
f 1017 1035 1036
f 1017 1036 1018
f 1018 1036 1037
f 1018 1037 1019
f 1019 1037 1038
f 1019 1038 1020
f 1020 1038 1039
f 1020 1039 1021
f 1021 1039 1040
f 1021 1040 1022
f 1022 1040 1041
f 1022 1041 1023
f 1023 1041 1042
f 1023 1042 1024
f 1024 1042 1043
f 1024 1043 1025
f 1025 1043 1044
f 1025 1044 1026
f 1026 1044 1045
f 1026 1045 1027
f 1027 1045 1046
f 1027 1046 1028
f 1028 1046 1047
f 1028 1047 1029
f 1029 1047 1048
f 1029 1048 1030
f 1030 1048 1049
f 1030 1049 1031
f 1031 1049 1050
f 1031 1050 1032
f 1032 1050 1051
f 1032 1051 1033
f 1033 1051 1034
f 1033 1034 1016
f 1034 1052 1053
f 1034 1053 1035
f 1035 1053 1054
f 1035 1054 1036
f 1036 1054 1055
f 1036 1055 1037
f 1037 1055 1056
f 1037 1056 1038
f 1038 1056 1057
f 1038 1057 1039
f 1039 1057 1058
f 1039 1058 1040
f 1040 1058 1059
f 1040 1059 1041
f 1041 1059 1060
f 1041 1060 1042
f 1042 1060 1061
f 1042 1061 1043
f 1043 1061 1062
f 1043 1062 1044
f 1044 1062 1063
f 1044 1063 1045
f 1045 1063 1064
f 1045 1064 1046
f 1046 1064 1065
f 1046 1065 1047
f 1047 1065 1066
f 1047 1066 1048
f 1048 1066 1067
f 1048 1067 1049
f 1049 1067 1068
f 1049 1068 1050
f 1050 1068 1069
f 1050 1069 1051
f 1051 1069 1052
f 1051 1052 1034
f 1070 1072 1071
f 1070 1073 1072
f 1074 1075 1076
f 1074 1076 1077
f 1070 1074 1077
f 1070 1077 1073
f 1071 1072 1076
f 1071 1076 1075
f 1073 1077 1076
f 1073 1076 1072
f 1070 1071 1075
f 1070 1075 1074
f 1078 1080 1079
f 1078 1081 1080
f 1082 1083 1084
f 1082 1084 1085
f 1078 1082 1085
f 1078 1085 1081
f 1079 1080 1084
f 1079 1084 1083
f 1081 1085 1084
f 1081 1084 1080
f 1078 1079 1083
f 1078 1083 1082
f 1086 1088 1087
f 1086 1089 1088
f 1090 1091 1092
f 1090 1092 1093
f 1086 1090 1093
f 1086 1093 1089
f 1087 1088 1092
f 1087 1092 1091
f 1089 1093 1092
f 1089 1092 1088
f 1086 1087 1091
f 1086 1091 1090
f 1094 1096 1095
f 1094 1097 1096
f 1098 1099 1100
f 1098 1100 1101
f 1094 1098 1101
f 1094 1101 1097
f 1095 1096 1100
f 1095 1100 1099
f 1097 1101 1100
f 1097 1100 1096
f 1094 1095 1099
f 1094 1099 1098
